<mxfile host="65bd71144e">
    <diagram id="xteuzVTajvBxKdlPfHfW" name="Page-1">
        <mxGraphModel dx="2265" dy="1991" grid="1" gridSize="10" guides="1" tooltips="1" connect="1" arrows="1" fold="1" page="1" pageScale="1" pageWidth="827" pageHeight="1169" background="#FFFFFF" math="0" shadow="0">
            <root>
                <mxCell id="0"/>
                <mxCell id="1" parent="0"/>
                <mxCell id="309" value="" style="rounded=1;whiteSpace=wrap;html=1;" vertex="1" parent="1">
                    <mxGeometry x="120" y="1420" width="660" height="1390" as="geometry"/>
                </mxCell>
                <mxCell id="243" value="" style="rounded=1;whiteSpace=wrap;html=1;" vertex="1" parent="1">
                    <mxGeometry x="2982.5" y="-130" width="970" height="1430" as="geometry"/>
                </mxCell>
                <mxCell id="242" value="" style="rounded=1;whiteSpace=wrap;html=1;" vertex="1" parent="1">
                    <mxGeometry x="4130" y="-120" width="970" height="1430" as="geometry"/>
                </mxCell>
                <mxCell id="240" value="" style="rounded=1;whiteSpace=wrap;html=1;" vertex="1" parent="1">
                    <mxGeometry x="5218.5" y="-130" width="970" height="1430" as="geometry"/>
                </mxCell>
                <mxCell id="238" value="" style="rounded=1;whiteSpace=wrap;html=1;" vertex="1" parent="1">
                    <mxGeometry x="1974.88" y="-130" width="970" height="1430" as="geometry"/>
                </mxCell>
                <mxCell id="237" value="" style="rounded=1;whiteSpace=wrap;html=1;" vertex="1" parent="1">
                    <mxGeometry x="970.88" y="-140" width="970" height="1430" as="geometry"/>
                </mxCell>
                <mxCell id="236" value="" style="rounded=1;whiteSpace=wrap;html=1;" vertex="1" parent="1">
                    <mxGeometry x="-20.5" y="-140" width="970" height="1430" as="geometry"/>
                </mxCell>
                <mxCell id="159" value="&amp;nbsp;contact Téléphone" style="rounded=1;whiteSpace=wrap;html=1;fontSize=28;fillColor=#0050ef;fontColor=#ffffff;strokeColor=#001DBC;shadow=1;" parent="1" vertex="1">
                    <mxGeometry x="4214.5" y="515" width="241" height="200" as="geometry"/>
                </mxCell>
                <mxCell id="8-FVZTYYCzLK7h8uSWiE-236" value="" style="shape=mxgraph.signs.tech.telephone_3;html=1;pointerEvents=1;fillColor=#000000;strokeColor=none;verticalLabelPosition=bottom;verticalAlign=top;align=center;sketch=0;" parent="1" vertex="1">
                    <mxGeometry x="4313" y="629.98" width="44" height="60.05" as="geometry"/>
                </mxCell>
                <mxCell id="7" value="" style="rounded=1;whiteSpace=wrap;html=1;fillColor=#0050ef;fontColor=#ffffff;strokeColor=#001DBC;glass=1;shadow=1;" parent="1" vertex="1">
                    <mxGeometry x="211" y="40" width="100" height="40" as="geometry"/>
                </mxCell>
                <mxCell id="8" value="LOGO" style="shape=sumEllipse;perimeter=ellipsePerimeter;whiteSpace=wrap;html=1;backgroundOutline=1;fillColor=#0050ef;fontColor=#ffffff;strokeColor=#001DBC;" parent="1" vertex="1">
                    <mxGeometry x="91" y="20" width="80" height="80" as="geometry"/>
                </mxCell>
                <mxCell id="9" value="" style="rounded=1;whiteSpace=wrap;html=1;fillColor=#0050ef;fontColor=#ffffff;strokeColor=#001DBC;glass=1;shadow=1;" parent="1" vertex="1">
                    <mxGeometry x="331" y="40" width="100" height="40" as="geometry"/>
                </mxCell>
                <mxCell id="10" value="" style="rounded=1;whiteSpace=wrap;html=1;fillColor=#0050ef;fontColor=#ffffff;strokeColor=#001DBC;glass=1;shadow=1;" parent="1" vertex="1">
                    <mxGeometry x="451" y="40" width="100" height="40" as="geometry"/>
                </mxCell>
                <mxCell id="11" value="" style="rounded=1;whiteSpace=wrap;html=1;fillColor=#0050ef;fontColor=#ffffff;strokeColor=#001DBC;glass=1;shadow=1;" parent="1" vertex="1">
                    <mxGeometry x="571" y="40" width="100" height="40" as="geometry"/>
                </mxCell>
                <mxCell id="12" value="" style="rounded=1;whiteSpace=wrap;html=1;fillColor=#0050ef;fontColor=#ffffff;strokeColor=#001DBC;glass=1;shadow=1;" parent="1" vertex="1">
                    <mxGeometry x="691" y="40" width="100" height="40" as="geometry"/>
                </mxCell>
                <mxCell id="13" value="Acceuil" style="text;strokeColor=none;align=center;fillColor=none;html=1;verticalAlign=middle;whiteSpace=wrap;rounded=0;" parent="1" vertex="1">
                    <mxGeometry x="231" y="45" width="60" height="30" as="geometry"/>
                </mxCell>
                <mxCell id="14" value="Produit" style="text;strokeColor=none;align=center;fillColor=none;html=1;verticalAlign=middle;whiteSpace=wrap;rounded=0;" parent="1" vertex="1">
                    <mxGeometry x="351" y="45" width="60" height="30" as="geometry"/>
                </mxCell>
                <mxCell id="15" value="Shop" style="text;strokeColor=none;align=center;fillColor=none;html=1;verticalAlign=middle;whiteSpace=wrap;rounded=0;" parent="1" vertex="1">
                    <mxGeometry x="471" y="45" width="60" height="30" as="geometry"/>
                </mxCell>
                <mxCell id="16" value="Blog" style="text;strokeColor=none;align=center;fillColor=none;html=1;verticalAlign=middle;whiteSpace=wrap;rounded=0;" parent="1" vertex="1">
                    <mxGeometry x="591" y="45" width="60" height="30" as="geometry"/>
                </mxCell>
                <mxCell id="17" value="Contact" style="text;strokeColor=none;align=center;fillColor=none;html=1;verticalAlign=middle;whiteSpace=wrap;rounded=0;" parent="1" vertex="1">
                    <mxGeometry x="711" y="45" width="60" height="30" as="geometry"/>
                </mxCell>
                <mxCell id="19" value="&lt;b&gt;&lt;font style=&quot;font-size: 28px;&quot;&gt;Banniere/Slider&lt;/font&gt;&lt;/b&gt;" style="rounded=0;whiteSpace=wrap;html=1;fillColor=#0050ef;fontColor=#ffffff;strokeColor=#001DBC;glass=0;" parent="1" vertex="1">
                    <mxGeometry x="51" y="110" width="820" height="150" as="geometry"/>
                </mxCell>
                <mxCell id="21" value="Présentation Produits" style="rounded=1;whiteSpace=wrap;html=1;fontSize=28;fillColor=#6a00ff;fontColor=#ffffff;strokeColor=#3700CC;shadow=1;gradientColor=default;" parent="1" vertex="1">
                    <mxGeometry x="171" y="280" width="600" height="200" as="geometry"/>
                </mxCell>
                <mxCell id="22" value="Offre Promotion" style="rounded=1;whiteSpace=wrap;html=1;fontSize=28;fillColor=#6a00ff;fontColor=#ffffff;strokeColor=#3700CC;shadow=1;gradientColor=default;" parent="1" vertex="1">
                    <mxGeometry x="171" y="497" width="600" height="200" as="geometry"/>
                </mxCell>
                <mxCell id="25" value="card Catégorie" style="rounded=1;whiteSpace=wrap;html=1;fontSize=28;fillColor=#0050ef;fontColor=#ffffff;strokeColor=#001DBC;gradientColor=default;" parent="1" vertex="1">
                    <mxGeometry x="54" y="720" width="200" height="280" as="geometry"/>
                </mxCell>
                <mxCell id="28" value="footer Bottom" style="rounded=0;whiteSpace=wrap;html=1;fontSize=28;fillColor=#0050ef;fontColor=#ffffff;strokeColor=#001DBC;" parent="1" vertex="1">
                    <mxGeometry x="51" y="1109" width="827" height="60" as="geometry"/>
                </mxCell>
                <mxCell id="30" value="card Best produits" style="rounded=1;whiteSpace=wrap;html=1;fontSize=28;fillColor=#0050ef;fontColor=#ffffff;strokeColor=#001DBC;gradientColor=default;" parent="1" vertex="1">
                    <mxGeometry x="260" y="720" width="200" height="280" as="geometry"/>
                </mxCell>
                <mxCell id="31" value="card Best Ventes" style="rounded=1;whiteSpace=wrap;html=1;fontSize=28;fillColor=#0050ef;fontColor=#ffffff;strokeColor=#001DBC;gradientColor=default;" parent="1" vertex="1">
                    <mxGeometry x="465" y="720" width="200" height="280" as="geometry"/>
                </mxCell>
                <mxCell id="32" value="card Promotion" style="rounded=1;whiteSpace=wrap;html=1;fontSize=28;fillColor=#0050ef;fontColor=#ffffff;strokeColor=#001DBC;gradientColor=default;" parent="1" vertex="1">
                    <mxGeometry x="671" y="720" width="200" height="280" as="geometry"/>
                </mxCell>
                <mxCell id="33" value="footer 1" style="rounded=0;whiteSpace=wrap;html=1;fontSize=28;fillColor=#6a00ff;fontColor=#ffffff;strokeColor=#3700CC;" parent="1" vertex="1">
                    <mxGeometry x="51" y="1010" width="827" height="99" as="geometry"/>
                </mxCell>
                <mxCell id="34" value="" style="shape=singleArrow;direction=west;whiteSpace=wrap;html=1;fontSize=28;" parent="1" vertex="1">
                    <mxGeometry x="81" y="175" width="33.33" height="20" as="geometry"/>
                </mxCell>
                <mxCell id="35" value="" style="shape=singleArrow;direction=west;whiteSpace=wrap;html=1;fontSize=28;flipV=0;flipH=1;" parent="1" vertex="1">
                    <mxGeometry x="821" y="175" width="33.33" height="20" as="geometry"/>
                </mxCell>
                <mxCell id="_iOEZmEosjU9QC5B6tLm-36" value="" style="dashed=0;outlineConnect=0;html=1;align=center;labelPosition=center;verticalLabelPosition=bottom;verticalAlign=top;shape=mxgraph.webicons.facebook;fillColor=#6294E4;gradientColor=#1A2665;rounded=0;shadow=1;glass=1;sketch=0;fontSize=28;" parent="1" vertex="1">
                    <mxGeometry x="66.38" y="1132.8" width="20.28" height="17.2" as="geometry"/>
                </mxCell>
                <mxCell id="_iOEZmEosjU9QC5B6tLm-37" value="" style="dashed=0;outlineConnect=0;html=1;align=center;labelPosition=center;verticalLabelPosition=bottom;verticalAlign=top;shape=mxgraph.webicons.vimeo;fillColor=#A4EDF9;gradientColor=#2B8ED9;rounded=0;shadow=1;glass=1;sketch=0;fontSize=28;" parent="1" vertex="1">
                    <mxGeometry x="91" y="1133" width="17.2" height="17.2" as="geometry"/>
                </mxCell>
                <mxCell id="_iOEZmEosjU9QC5B6tLm-38" value="" style="dashed=0;outlineConnect=0;html=1;align=center;labelPosition=center;verticalLabelPosition=bottom;verticalAlign=top;shape=mxgraph.webicons.github;gradientColor=#DFDEDE;rounded=0;shadow=1;glass=1;sketch=0;fontSize=28;" parent="1" vertex="1">
                    <mxGeometry x="114.33" y="1132.8" width="17.2" height="17.2" as="geometry"/>
                </mxCell>
                <mxCell id="_iOEZmEosjU9QC5B6tLm-39" value="" style="shape=actor;whiteSpace=wrap;html=1;rounded=0;shadow=1;glass=1;sketch=0;fontSize=28;fillColor=#6a00ff;fontColor=#ffffff;strokeColor=#3700CC;gradientColor=default;" parent="1" vertex="1">
                    <mxGeometry x="811" y="30" width="40" height="60" as="geometry"/>
                </mxCell>
                <mxCell id="_iOEZmEosjU9QC5B6tLm-41" value="" style="rounded=1;whiteSpace=wrap;html=1;fillColor=#0050ef;fontColor=#ffffff;strokeColor=#001DBC;glass=1;shadow=1;" parent="1" vertex="1">
                    <mxGeometry x="1213.5" y="39" width="100" height="40" as="geometry"/>
                </mxCell>
                <mxCell id="_iOEZmEosjU9QC5B6tLm-42" value="LOGO" style="shape=sumEllipse;perimeter=ellipsePerimeter;whiteSpace=wrap;html=1;backgroundOutline=1;fillColor=#0050ef;fontColor=#ffffff;strokeColor=#001DBC;" parent="1" vertex="1">
                    <mxGeometry x="1093.5" y="19.000000000000004" width="80" height="80" as="geometry"/>
                </mxCell>
                <mxCell id="_iOEZmEosjU9QC5B6tLm-43" value="" style="rounded=1;whiteSpace=wrap;html=1;fillColor=#0050ef;fontColor=#ffffff;strokeColor=#001DBC;glass=1;shadow=1;" parent="1" vertex="1">
                    <mxGeometry x="1333.5" y="39" width="100" height="40" as="geometry"/>
                </mxCell>
                <mxCell id="_iOEZmEosjU9QC5B6tLm-44" value="" style="rounded=1;whiteSpace=wrap;html=1;fillColor=#0050ef;fontColor=#ffffff;strokeColor=#001DBC;glass=1;shadow=1;" parent="1" vertex="1">
                    <mxGeometry x="1453.5" y="39" width="100" height="40" as="geometry"/>
                </mxCell>
                <mxCell id="_iOEZmEosjU9QC5B6tLm-45" value="" style="rounded=1;whiteSpace=wrap;html=1;fillColor=#0050ef;fontColor=#ffffff;strokeColor=#001DBC;glass=1;shadow=1;" parent="1" vertex="1">
                    <mxGeometry x="1573.5" y="39" width="100" height="40" as="geometry"/>
                </mxCell>
                <mxCell id="_iOEZmEosjU9QC5B6tLm-46" value="" style="rounded=1;whiteSpace=wrap;html=1;fillColor=#0050ef;fontColor=#ffffff;strokeColor=#001DBC;glass=1;shadow=1;" parent="1" vertex="1">
                    <mxGeometry x="1693.5" y="39" width="100" height="40" as="geometry"/>
                </mxCell>
                <mxCell id="_iOEZmEosjU9QC5B6tLm-47" value="Acceuil" style="text;strokeColor=none;align=center;fillColor=none;html=1;verticalAlign=middle;whiteSpace=wrap;rounded=0;" parent="1" vertex="1">
                    <mxGeometry x="1233.5" y="44" width="60" height="30" as="geometry"/>
                </mxCell>
                <mxCell id="_iOEZmEosjU9QC5B6tLm-48" value="Produit" style="text;strokeColor=none;align=center;fillColor=none;html=1;verticalAlign=middle;whiteSpace=wrap;rounded=0;" parent="1" vertex="1">
                    <mxGeometry x="1353.5" y="44" width="60" height="30" as="geometry"/>
                </mxCell>
                <mxCell id="_iOEZmEosjU9QC5B6tLm-49" value="Shop" style="text;strokeColor=none;align=center;fillColor=none;html=1;verticalAlign=middle;whiteSpace=wrap;rounded=0;" parent="1" vertex="1">
                    <mxGeometry x="1473.5" y="44" width="60" height="30" as="geometry"/>
                </mxCell>
                <mxCell id="_iOEZmEosjU9QC5B6tLm-50" value="Blog" style="text;strokeColor=none;align=center;fillColor=none;html=1;verticalAlign=middle;whiteSpace=wrap;rounded=0;" parent="1" vertex="1">
                    <mxGeometry x="1593.5" y="44" width="60" height="30" as="geometry"/>
                </mxCell>
                <mxCell id="_iOEZmEosjU9QC5B6tLm-51" value="Contact" style="text;strokeColor=none;align=center;fillColor=none;html=1;verticalAlign=middle;whiteSpace=wrap;rounded=0;" parent="1" vertex="1">
                    <mxGeometry x="1713.5" y="44" width="60" height="30" as="geometry"/>
                </mxCell>
                <mxCell id="_iOEZmEosjU9QC5B6tLm-52" value="" style="shape=actor;whiteSpace=wrap;html=1;rounded=0;shadow=1;glass=1;sketch=0;fontSize=28;fillColor=#6a00ff;fontColor=#ffffff;strokeColor=#3700CC;gradientColor=default;" parent="1" vertex="1">
                    <mxGeometry x="1813.5" y="29.000000000000004" width="40" height="60" as="geometry"/>
                </mxCell>
                <mxCell id="_iOEZmEosjU9QC5B6tLm-53" value="List" style="swimlane;fontStyle=0;childLayout=stackLayout;horizontal=1;startSize=30;horizontalStack=0;resizeParent=1;resizeParentMax=0;resizeLast=0;collapsible=1;marginBottom=0;whiteSpace=wrap;html=1;rounded=0;shadow=1;glass=1;sketch=0;fontSize=28;fillColor=#0050ef;fontColor=#ffffff;strokeColor=#001DBC;" parent="1" vertex="1">
                    <mxGeometry x="1336" y="79" width="95" height="120" as="geometry"/>
                </mxCell>
                <mxCell id="_iOEZmEosjU9QC5B6tLm-54" value="&lt;font color=&quot;#ffffff&quot;&gt;Item 1&lt;/font&gt;" style="text;align=left;verticalAlign=middle;spacingLeft=4;spacingRight=4;overflow=hidden;points=[[0,0.5],[1,0.5]];portConstraint=eastwest;rotatable=0;whiteSpace=wrap;html=1;rounded=0;shadow=1;glass=1;sketch=0;fontSize=28;fontColor=#000000;" parent="_iOEZmEosjU9QC5B6tLm-53" vertex="1">
                    <mxGeometry y="30" width="95" height="30" as="geometry"/>
                </mxCell>
                <mxCell id="_iOEZmEosjU9QC5B6tLm-55" value="&lt;font color=&quot;#ffffff&quot;&gt;Item 2&lt;/font&gt;" style="text;align=left;verticalAlign=middle;spacingLeft=4;spacingRight=4;overflow=hidden;points=[[0,0.5],[1,0.5]];portConstraint=eastwest;rotatable=0;whiteSpace=wrap;html=1;rounded=0;shadow=1;glass=1;sketch=0;fontSize=28;fontColor=#000000;" parent="_iOEZmEosjU9QC5B6tLm-53" vertex="1">
                    <mxGeometry y="60" width="95" height="30" as="geometry"/>
                </mxCell>
                <mxCell id="_iOEZmEosjU9QC5B6tLm-56" value="&lt;font color=&quot;#ffffff&quot;&gt;Item 3&lt;/font&gt;" style="text;align=left;verticalAlign=middle;spacingLeft=4;spacingRight=4;overflow=hidden;points=[[0,0.5],[1,0.5]];portConstraint=eastwest;rotatable=0;whiteSpace=wrap;html=1;rounded=0;shadow=1;glass=1;sketch=0;fontSize=28;fontColor=#000000;" parent="_iOEZmEosjU9QC5B6tLm-53" vertex="1">
                    <mxGeometry y="90" width="95" height="30" as="geometry"/>
                </mxCell>
                <mxCell id="41" value="footer 1" style="rounded=0;whiteSpace=wrap;html=1;fontSize=28;fillColor=#6a00ff;fontColor=#ffffff;strokeColor=#3700CC;" parent="1" vertex="1">
                    <mxGeometry x="1040.5" y="1009" width="827" height="99" as="geometry"/>
                </mxCell>
                <mxCell id="42" value="&lt;p&gt;&lt;br&gt;&lt;/p&gt;" style="verticalLabelPosition=bottom;verticalAlign=top;html=1;shape=mxgraph.basic.diag_round_rect;dx=6;whiteSpace=wrap;fillColor=#0050ef;fontColor=#ffffff;strokeColor=#001DBC;" parent="1" vertex="1">
                    <mxGeometry x="1053.5" y="239" width="240" height="138" as="geometry"/>
                </mxCell>
                <mxCell id="43" value="" style="verticalLabelPosition=bottom;verticalAlign=top;html=1;shape=mxgraph.basic.diag_round_rect;dx=6;whiteSpace=wrap;fillColor=#0050ef;fontColor=#ffffff;strokeColor=#001DBC;" parent="1" vertex="1">
                    <mxGeometry x="1333.5" y="239" width="240" height="138" as="geometry"/>
                </mxCell>
                <mxCell id="44" value="" style="verticalLabelPosition=bottom;verticalAlign=top;html=1;shape=mxgraph.basic.diag_round_rect;dx=6;whiteSpace=wrap;fillColor=#0050ef;fontColor=#ffffff;strokeColor=#001DBC;" parent="1" vertex="1">
                    <mxGeometry x="1613.5" y="239" width="240" height="138" as="geometry"/>
                </mxCell>
                <mxCell id="45" value="" style="verticalLabelPosition=bottom;verticalAlign=top;html=1;shape=mxgraph.basic.diag_round_rect;dx=6;whiteSpace=wrap;fillColor=#0050ef;fontColor=#ffffff;strokeColor=#001DBC;" parent="1" vertex="1">
                    <mxGeometry x="1615.88" y="439" width="240" height="138" as="geometry"/>
                </mxCell>
                <mxCell id="46" value="" style="verticalLabelPosition=bottom;verticalAlign=top;html=1;shape=mxgraph.basic.diag_round_rect;dx=6;whiteSpace=wrap;fillColor=#0050ef;fontColor=#ffffff;strokeColor=#001DBC;" parent="1" vertex="1">
                    <mxGeometry x="1335.88" y="439" width="240" height="138" as="geometry"/>
                </mxCell>
                <mxCell id="47" value="" style="verticalLabelPosition=bottom;verticalAlign=top;html=1;shape=mxgraph.basic.diag_round_rect;dx=6;whiteSpace=wrap;fillColor=#0050ef;fontColor=#ffffff;strokeColor=#001DBC;" parent="1" vertex="1">
                    <mxGeometry x="1055.88" y="439" width="240" height="138" as="geometry"/>
                </mxCell>
                <mxCell id="48" value="" style="verticalLabelPosition=bottom;verticalAlign=top;html=1;shape=mxgraph.basic.diag_round_rect;dx=6;whiteSpace=wrap;fillColor=#0050ef;fontColor=#ffffff;strokeColor=#001DBC;" parent="1" vertex="1">
                    <mxGeometry x="1615.88" y="639" width="240" height="138" as="geometry"/>
                </mxCell>
                <mxCell id="49" value="" style="verticalLabelPosition=bottom;verticalAlign=top;html=1;shape=mxgraph.basic.diag_round_rect;dx=6;whiteSpace=wrap;fillColor=#0050ef;fontColor=#ffffff;strokeColor=#001DBC;" parent="1" vertex="1">
                    <mxGeometry x="1335.88" y="639" width="240" height="138" as="geometry"/>
                </mxCell>
                <mxCell id="50" value="" style="verticalLabelPosition=bottom;verticalAlign=top;html=1;shape=mxgraph.basic.diag_round_rect;dx=6;whiteSpace=wrap;fillColor=#0050ef;fontColor=#ffffff;strokeColor=#001DBC;" parent="1" vertex="1">
                    <mxGeometry x="1055.88" y="639" width="240" height="138" as="geometry"/>
                </mxCell>
                <mxCell id="51" value="" style="verticalLabelPosition=bottom;verticalAlign=top;html=1;shape=mxgraph.basic.diag_round_rect;dx=6;whiteSpace=wrap;fillColor=#0050ef;fontColor=#ffffff;strokeColor=#001DBC;" parent="1" vertex="1">
                    <mxGeometry x="1615.88" y="839" width="240" height="138" as="geometry"/>
                </mxCell>
                <mxCell id="52" value="" style="verticalLabelPosition=bottom;verticalAlign=top;html=1;shape=mxgraph.basic.diag_round_rect;dx=6;whiteSpace=wrap;fillColor=#0050ef;fontColor=#ffffff;strokeColor=#001DBC;" parent="1" vertex="1">
                    <mxGeometry x="1335.88" y="839" width="240" height="138" as="geometry"/>
                </mxCell>
                <mxCell id="53" value="" style="verticalLabelPosition=bottom;verticalAlign=top;html=1;shape=mxgraph.basic.diag_round_rect;dx=6;whiteSpace=wrap;fillColor=#0050ef;fontColor=#ffffff;strokeColor=#001DBC;" parent="1" vertex="1">
                    <mxGeometry x="1055.88" y="839" width="240" height="138" as="geometry"/>
                </mxCell>
                <mxCell id="54" value="&lt;font style=&quot;font-size: 21px;&quot;&gt;Produit1&lt;/font&gt;" style="text;strokeColor=none;align=center;fillColor=none;html=1;verticalAlign=middle;whiteSpace=wrap;rounded=0;" parent="1" vertex="1">
                    <mxGeometry x="1143.5" y="293" width="60" height="30" as="geometry"/>
                </mxCell>
                <mxCell id="55" value="&lt;font style=&quot;font-size: 21px;&quot;&gt;Produit2&lt;/font&gt;" style="text;strokeColor=none;align=center;fillColor=none;html=1;verticalAlign=middle;whiteSpace=wrap;rounded=0;" parent="1" vertex="1">
                    <mxGeometry x="1423.5" y="293" width="60" height="30" as="geometry"/>
                </mxCell>
                <mxCell id="56" value="&lt;font style=&quot;font-size: 21px;&quot;&gt;Produit3&lt;/font&gt;" style="text;strokeColor=none;align=center;fillColor=none;html=1;verticalAlign=middle;whiteSpace=wrap;rounded=0;" parent="1" vertex="1">
                    <mxGeometry x="1713.5" y="293" width="60" height="30" as="geometry"/>
                </mxCell>
                <mxCell id="57" value="&lt;font style=&quot;font-size: 21px;&quot;&gt;Produit6&lt;/font&gt;" style="text;strokeColor=none;align=center;fillColor=none;html=1;verticalAlign=middle;whiteSpace=wrap;rounded=0;" parent="1" vertex="1">
                    <mxGeometry x="1713.5" y="493" width="60" height="30" as="geometry"/>
                </mxCell>
                <mxCell id="58" value="&lt;font style=&quot;font-size: 21px;&quot;&gt;Produit5&lt;/font&gt;" style="text;strokeColor=none;align=center;fillColor=none;html=1;verticalAlign=middle;whiteSpace=wrap;rounded=0;" parent="1" vertex="1">
                    <mxGeometry x="1425.88" y="493" width="60" height="30" as="geometry"/>
                </mxCell>
                <mxCell id="59" value="&lt;font style=&quot;font-size: 21px;&quot;&gt;Produit4&lt;/font&gt;" style="text;strokeColor=none;align=center;fillColor=none;html=1;verticalAlign=middle;whiteSpace=wrap;rounded=0;" parent="1" vertex="1">
                    <mxGeometry x="1143.5" y="493" width="60" height="30" as="geometry"/>
                </mxCell>
                <mxCell id="60" value="&lt;font style=&quot;font-size: 21px;&quot;&gt;Produit7&lt;/font&gt;" style="text;strokeColor=none;align=center;fillColor=none;html=1;verticalAlign=middle;whiteSpace=wrap;rounded=0;" parent="1" vertex="1">
                    <mxGeometry x="1143.5" y="693" width="60" height="30" as="geometry"/>
                </mxCell>
                <mxCell id="61" value="&lt;font style=&quot;font-size: 21px;&quot;&gt;Produit8&lt;/font&gt;" style="text;strokeColor=none;align=center;fillColor=none;html=1;verticalAlign=middle;whiteSpace=wrap;rounded=0;" parent="1" vertex="1">
                    <mxGeometry x="1423.5" y="693" width="60" height="30" as="geometry"/>
                </mxCell>
                <mxCell id="62" value="&lt;font style=&quot;font-size: 21px;&quot;&gt;Produit9&lt;/font&gt;" style="text;strokeColor=none;align=center;fillColor=none;html=1;verticalAlign=middle;whiteSpace=wrap;rounded=0;" parent="1" vertex="1">
                    <mxGeometry x="1713.5" y="693" width="60" height="30" as="geometry"/>
                </mxCell>
                <mxCell id="63" value="&lt;font style=&quot;font-size: 21px;&quot;&gt;Produit12&lt;/font&gt;" style="text;strokeColor=none;align=center;fillColor=none;html=1;verticalAlign=middle;whiteSpace=wrap;rounded=0;" parent="1" vertex="1">
                    <mxGeometry x="1713.5" y="893" width="60" height="30" as="geometry"/>
                </mxCell>
                <mxCell id="64" value="&lt;font style=&quot;font-size: 21px;&quot;&gt;Produit11&lt;/font&gt;" style="text;strokeColor=none;align=center;fillColor=none;html=1;verticalAlign=middle;whiteSpace=wrap;rounded=0;" parent="1" vertex="1">
                    <mxGeometry x="1425.88" y="899" width="60" height="30" as="geometry"/>
                </mxCell>
                <mxCell id="65" value="&lt;font style=&quot;font-size: 21px;&quot;&gt;Produit10&lt;/font&gt;" style="text;strokeColor=none;align=center;fillColor=none;html=1;verticalAlign=middle;whiteSpace=wrap;rounded=0;" parent="1" vertex="1">
                    <mxGeometry x="1145.88" y="899" width="60" height="30" as="geometry"/>
                </mxCell>
                <mxCell id="96" value="" style="rounded=1;whiteSpace=wrap;html=1;fillColor=#0050ef;fontColor=#ffffff;strokeColor=#001DBC;glass=1;shadow=1;" parent="1" vertex="1">
                    <mxGeometry x="2194" y="40" width="100" height="40" as="geometry"/>
                </mxCell>
                <mxCell id="97" value="LOGO" style="shape=sumEllipse;perimeter=ellipsePerimeter;whiteSpace=wrap;html=1;backgroundOutline=1;fillColor=#0050ef;fontColor=#ffffff;strokeColor=#001DBC;" parent="1" vertex="1">
                    <mxGeometry x="2074" y="20" width="80" height="80" as="geometry"/>
                </mxCell>
                <mxCell id="98" value="" style="rounded=1;whiteSpace=wrap;html=1;fillColor=#0050ef;fontColor=#ffffff;strokeColor=#001DBC;glass=1;shadow=1;" parent="1" vertex="1">
                    <mxGeometry x="2314" y="40" width="100" height="40" as="geometry"/>
                </mxCell>
                <mxCell id="99" value="" style="rounded=1;whiteSpace=wrap;html=1;fillColor=#0050ef;fontColor=#ffffff;strokeColor=#001DBC;glass=1;shadow=1;" parent="1" vertex="1">
                    <mxGeometry x="2434" y="40" width="100" height="40" as="geometry"/>
                </mxCell>
                <mxCell id="100" value="" style="rounded=1;whiteSpace=wrap;html=1;fillColor=#0050ef;fontColor=#ffffff;strokeColor=#001DBC;glass=1;shadow=1;" parent="1" vertex="1">
                    <mxGeometry x="2554" y="40" width="100" height="40" as="geometry"/>
                </mxCell>
                <mxCell id="101" value="" style="rounded=1;whiteSpace=wrap;html=1;fillColor=#0050ef;fontColor=#ffffff;strokeColor=#001DBC;glass=1;shadow=1;" parent="1" vertex="1">
                    <mxGeometry x="2674" y="40" width="100" height="40" as="geometry"/>
                </mxCell>
                <mxCell id="102" value="Acceuil" style="text;strokeColor=none;align=center;fillColor=none;html=1;verticalAlign=middle;whiteSpace=wrap;rounded=0;" parent="1" vertex="1">
                    <mxGeometry x="2214" y="45" width="60" height="30" as="geometry"/>
                </mxCell>
                <mxCell id="103" value="Produit" style="text;strokeColor=none;align=center;fillColor=none;html=1;verticalAlign=middle;whiteSpace=wrap;rounded=0;" parent="1" vertex="1">
                    <mxGeometry x="2334" y="45" width="60" height="30" as="geometry"/>
                </mxCell>
                <mxCell id="104" value="Shop" style="text;strokeColor=none;align=center;fillColor=none;html=1;verticalAlign=middle;whiteSpace=wrap;rounded=0;" parent="1" vertex="1">
                    <mxGeometry x="2454" y="45" width="60" height="30" as="geometry"/>
                </mxCell>
                <mxCell id="105" value="Blog" style="text;strokeColor=none;align=center;fillColor=none;html=1;verticalAlign=middle;whiteSpace=wrap;rounded=0;" parent="1" vertex="1">
                    <mxGeometry x="2574" y="45" width="60" height="30" as="geometry"/>
                </mxCell>
                <mxCell id="106" value="Contact" style="text;strokeColor=none;align=center;fillColor=none;html=1;verticalAlign=middle;whiteSpace=wrap;rounded=0;" parent="1" vertex="1">
                    <mxGeometry x="2694" y="45" width="60" height="30" as="geometry"/>
                </mxCell>
                <mxCell id="107" value="" style="shape=actor;whiteSpace=wrap;html=1;rounded=0;shadow=1;glass=1;sketch=0;fontSize=28;fillColor=#6a00ff;fontColor=#ffffff;strokeColor=#3700CC;gradientColor=default;" parent="1" vertex="1">
                    <mxGeometry x="2794" y="30" width="40" height="60" as="geometry"/>
                </mxCell>
                <mxCell id="108" value="footer 1" style="rounded=0;whiteSpace=wrap;html=1;fontSize=28;fillColor=#6a00ff;fontColor=#ffffff;strokeColor=#3700CC;" parent="1" vertex="1">
                    <mxGeometry x="2034" y="1010" width="827" height="99" as="geometry"/>
                </mxCell>
                <mxCell id="109" value="footer Bottom" style="rounded=0;whiteSpace=wrap;html=1;fontSize=28;fillColor=#0050ef;fontColor=#ffffff;strokeColor=#001DBC;" parent="1" vertex="1">
                    <mxGeometry x="1040" y="1108.6" width="827" height="60" as="geometry"/>
                </mxCell>
                <mxCell id="110" value="" style="dashed=0;outlineConnect=0;html=1;align=center;labelPosition=center;verticalLabelPosition=bottom;verticalAlign=top;shape=mxgraph.webicons.github;gradientColor=#DFDEDE;rounded=0;shadow=1;glass=1;sketch=0;fontSize=28;" parent="1" vertex="1">
                    <mxGeometry x="1103.33" y="1132.3999999999999" width="17.2" height="17.2" as="geometry"/>
                </mxCell>
                <mxCell id="111" value="" style="dashed=0;outlineConnect=0;html=1;align=center;labelPosition=center;verticalLabelPosition=bottom;verticalAlign=top;shape=mxgraph.webicons.vimeo;fillColor=#A4EDF9;gradientColor=#2B8ED9;rounded=0;shadow=1;glass=1;sketch=0;fontSize=28;" parent="1" vertex="1">
                    <mxGeometry x="1080" y="1132.6" width="17.2" height="17.2" as="geometry"/>
                </mxCell>
                <mxCell id="112" value="" style="dashed=0;outlineConnect=0;html=1;align=center;labelPosition=center;verticalLabelPosition=bottom;verticalAlign=top;shape=mxgraph.webicons.facebook;fillColor=#6294E4;gradientColor=#1A2665;rounded=0;shadow=1;glass=1;sketch=0;fontSize=28;" parent="1" vertex="1">
                    <mxGeometry x="1055.38" y="1132.3999999999999" width="20.28" height="17.2" as="geometry"/>
                </mxCell>
                <mxCell id="114" value="&lt;span style=&quot;font-size: 28px;&quot;&gt;&lt;b&gt;Photo boutique / Map&lt;/b&gt;&lt;/span&gt;" style="rounded=0;whiteSpace=wrap;html=1;fillColor=#0050ef;fontColor=#ffffff;strokeColor=#001DBC;glass=0;" parent="1" vertex="1">
                    <mxGeometry x="2034" y="119" width="820" height="380" as="geometry"/>
                </mxCell>
                <mxCell id="115" value="Article Blog" style="rounded=1;whiteSpace=wrap;html=1;fontSize=28;fillColor=#6a00ff;fontColor=#ffffff;strokeColor=#3700CC;shadow=1;gradientColor=default;" parent="1" vertex="1">
                    <mxGeometry x="3189" y="196" width="600" height="200" as="geometry"/>
                </mxCell>
                <mxCell id="116" value="Horaire d'ouverture" style="rounded=1;whiteSpace=wrap;html=1;fontSize=28;fillColor=#6a00ff;fontColor=#ffffff;strokeColor=#3700CC;shadow=1;" parent="1" vertex="1">
                    <mxGeometry x="2144" y="760" width="282" height="200" as="geometry"/>
                </mxCell>
                <mxCell id="117" value="Info sur Tarif/Envoi" style="rounded=1;whiteSpace=wrap;html=1;fontSize=28;fillColor=#6a00ff;fontColor=#ffffff;strokeColor=#3700CC;shadow=1;" parent="1" vertex="1">
                    <mxGeometry x="2462" y="760" width="282" height="200" as="geometry"/>
                </mxCell>
                <mxCell id="119" value="" style="rounded=1;whiteSpace=wrap;html=1;fillColor=#0050ef;fontColor=#ffffff;strokeColor=#001DBC;glass=1;shadow=1;" parent="1" vertex="1">
                    <mxGeometry x="3224" y="76.5" width="100" height="40" as="geometry"/>
                </mxCell>
                <mxCell id="120" value="" style="rounded=1;whiteSpace=wrap;html=1;fillColor=#0050ef;fontColor=#ffffff;strokeColor=#001DBC;glass=1;shadow=1;" parent="1" vertex="1">
                    <mxGeometry x="3344" y="76.5" width="100" height="40" as="geometry"/>
                </mxCell>
                <mxCell id="121" value="" style="rounded=1;whiteSpace=wrap;html=1;fillColor=#0050ef;fontColor=#ffffff;strokeColor=#001DBC;glass=1;shadow=1;" parent="1" vertex="1">
                    <mxGeometry x="3464" y="76.5" width="100" height="40" as="geometry"/>
                </mxCell>
                <mxCell id="122" value="" style="rounded=1;whiteSpace=wrap;html=1;fillColor=#0050ef;fontColor=#ffffff;strokeColor=#001DBC;glass=1;shadow=1;" parent="1" vertex="1">
                    <mxGeometry x="3584" y="76.5" width="100" height="40" as="geometry"/>
                </mxCell>
                <mxCell id="123" value="" style="rounded=1;whiteSpace=wrap;html=1;fillColor=#0050ef;fontColor=#ffffff;strokeColor=#001DBC;glass=1;shadow=1;" parent="1" vertex="1">
                    <mxGeometry x="3694" y="76.5" width="100" height="40" as="geometry"/>
                </mxCell>
                <mxCell id="124" value="Acceuil" style="text;strokeColor=none;align=center;fillColor=none;html=1;verticalAlign=middle;whiteSpace=wrap;rounded=0;" parent="1" vertex="1">
                    <mxGeometry x="3244" y="81.5" width="60" height="30" as="geometry"/>
                </mxCell>
                <mxCell id="125" value="Produit" style="text;strokeColor=none;align=center;fillColor=none;html=1;verticalAlign=middle;whiteSpace=wrap;rounded=0;" parent="1" vertex="1">
                    <mxGeometry x="3364" y="81.5" width="60" height="30" as="geometry"/>
                </mxCell>
                <mxCell id="126" value="Shop" style="text;strokeColor=none;align=center;fillColor=none;html=1;verticalAlign=middle;whiteSpace=wrap;rounded=0;" parent="1" vertex="1">
                    <mxGeometry x="3484" y="81.5" width="60" height="30" as="geometry"/>
                </mxCell>
                <mxCell id="127" value="Blog" style="text;strokeColor=none;align=center;fillColor=none;html=1;verticalAlign=middle;whiteSpace=wrap;rounded=0;" parent="1" vertex="1">
                    <mxGeometry x="3604" y="81.5" width="60" height="30" as="geometry"/>
                </mxCell>
                <mxCell id="128" value="Contact" style="text;strokeColor=none;align=center;fillColor=none;html=1;verticalAlign=middle;whiteSpace=wrap;rounded=0;" parent="1" vertex="1">
                    <mxGeometry x="3724" y="81.5" width="60" height="30" as="geometry"/>
                </mxCell>
                <mxCell id="129" value="" style="shape=actor;whiteSpace=wrap;html=1;rounded=0;shadow=1;glass=1;sketch=0;fontSize=28;fillColor=#6a00ff;fontColor=#ffffff;strokeColor=#3700CC;gradientColor=default;" parent="1" vertex="1">
                    <mxGeometry x="3814" y="66.5" width="40" height="60" as="geometry"/>
                </mxCell>
                <mxCell id="130" value="LOGO" style="shape=sumEllipse;perimeter=ellipsePerimeter;whiteSpace=wrap;html=1;backgroundOutline=1;fillColor=#0050ef;fontColor=#ffffff;strokeColor=#001DBC;" parent="1" vertex="1">
                    <mxGeometry x="3104" y="56.5" width="80" height="80" as="geometry"/>
                </mxCell>
                <mxCell id="131" value="footer 1" style="rounded=0;whiteSpace=wrap;html=1;fontSize=28;fillColor=#6a00ff;fontColor=#ffffff;strokeColor=#3700CC;" parent="1" vertex="1">
                    <mxGeometry x="3054" y="1046.5" width="827" height="99" as="geometry"/>
                </mxCell>
                <mxCell id="132" value="footer Bottom" style="rounded=0;whiteSpace=wrap;html=1;fontSize=28;fillColor=#0050ef;fontColor=#ffffff;strokeColor=#001DBC;" parent="1" vertex="1">
                    <mxGeometry x="3054" y="1145.5" width="827" height="60" as="geometry"/>
                </mxCell>
                <mxCell id="133" value="" style="dashed=0;outlineConnect=0;html=1;align=center;labelPosition=center;verticalLabelPosition=bottom;verticalAlign=top;shape=mxgraph.webicons.github;gradientColor=#DFDEDE;rounded=0;shadow=1;glass=1;sketch=0;fontSize=28;" parent="1" vertex="1">
                    <mxGeometry x="3127.33" y="1169.3" width="17.2" height="17.2" as="geometry"/>
                </mxCell>
                <mxCell id="134" value="" style="dashed=0;outlineConnect=0;html=1;align=center;labelPosition=center;verticalLabelPosition=bottom;verticalAlign=top;shape=mxgraph.webicons.vimeo;fillColor=#A4EDF9;gradientColor=#2B8ED9;rounded=0;shadow=1;glass=1;sketch=0;fontSize=28;" parent="1" vertex="1">
                    <mxGeometry x="3104" y="1169.5" width="17.2" height="17.2" as="geometry"/>
                </mxCell>
                <mxCell id="135" value="" style="dashed=0;outlineConnect=0;html=1;align=center;labelPosition=center;verticalLabelPosition=bottom;verticalAlign=top;shape=mxgraph.webicons.facebook;fillColor=#6294E4;gradientColor=#1A2665;rounded=0;shadow=1;glass=1;sketch=0;fontSize=28;" parent="1" vertex="1">
                    <mxGeometry x="3079.38" y="1169.3" width="20.28" height="17.2" as="geometry"/>
                </mxCell>
                <mxCell id="136" value="Article Blog" style="rounded=1;whiteSpace=wrap;html=1;fontSize=28;fillColor=#6a00ff;fontColor=#ffffff;strokeColor=#3700CC;shadow=1;gradientColor=default;" parent="1" vertex="1">
                    <mxGeometry x="3189" y="486" width="600" height="200" as="geometry"/>
                </mxCell>
                <mxCell id="137" value="Article Blog" style="rounded=1;whiteSpace=wrap;html=1;fontSize=28;fillColor=#6a00ff;fontColor=#ffffff;strokeColor=#3700CC;shadow=1;gradientColor=default;" parent="1" vertex="1">
                    <mxGeometry x="3189" y="776" width="600" height="200" as="geometry"/>
                </mxCell>
                <mxCell id="138" value="Introduction Texte Boutique" style="rounded=1;whiteSpace=wrap;html=1;fontSize=28;fillColor=#6a00ff;fontColor=#ffffff;strokeColor=#3700CC;shadow=1;gradientColor=default;" parent="1" vertex="1">
                    <mxGeometry x="2144" y="530" width="600" height="200" as="geometry"/>
                </mxCell>
                <mxCell id="140" value="" style="rounded=1;whiteSpace=wrap;html=1;fillColor=#0050ef;fontColor=#ffffff;strokeColor=#001DBC;glass=1;shadow=1;" parent="1" vertex="1">
                    <mxGeometry x="4361.5" y="74" width="100" height="40" as="geometry"/>
                </mxCell>
                <mxCell id="141" value="" style="rounded=1;whiteSpace=wrap;html=1;fillColor=#0050ef;fontColor=#ffffff;strokeColor=#001DBC;glass=1;shadow=1;" parent="1" vertex="1">
                    <mxGeometry x="4481.5" y="74" width="100" height="40" as="geometry"/>
                </mxCell>
                <mxCell id="142" value="" style="rounded=1;whiteSpace=wrap;html=1;fillColor=#0050ef;fontColor=#ffffff;strokeColor=#001DBC;glass=1;shadow=1;" parent="1" vertex="1">
                    <mxGeometry x="4601.5" y="74" width="100" height="40" as="geometry"/>
                </mxCell>
                <mxCell id="143" value="" style="rounded=1;whiteSpace=wrap;html=1;fillColor=#0050ef;fontColor=#ffffff;strokeColor=#001DBC;glass=1;shadow=1;" parent="1" vertex="1">
                    <mxGeometry x="4721.5" y="74" width="100" height="40" as="geometry"/>
                </mxCell>
                <mxCell id="144" value="" style="rounded=1;whiteSpace=wrap;html=1;fillColor=#0050ef;fontColor=#ffffff;strokeColor=#001DBC;glass=1;shadow=1;" parent="1" vertex="1">
                    <mxGeometry x="4841.5" y="74" width="100" height="40" as="geometry"/>
                </mxCell>
                <mxCell id="145" value="Acceuil" style="text;strokeColor=none;align=center;fillColor=none;html=1;verticalAlign=middle;whiteSpace=wrap;rounded=0;" parent="1" vertex="1">
                    <mxGeometry x="4381.5" y="79" width="60" height="30" as="geometry"/>
                </mxCell>
                <mxCell id="146" value="Produit" style="text;strokeColor=none;align=center;fillColor=none;html=1;verticalAlign=middle;whiteSpace=wrap;rounded=0;" parent="1" vertex="1">
                    <mxGeometry x="4501.5" y="79" width="60" height="30" as="geometry"/>
                </mxCell>
                <mxCell id="147" value="Shop" style="text;strokeColor=none;align=center;fillColor=none;html=1;verticalAlign=middle;whiteSpace=wrap;rounded=0;" parent="1" vertex="1">
                    <mxGeometry x="4621.5" y="79" width="60" height="30" as="geometry"/>
                </mxCell>
                <mxCell id="148" value="Blog" style="text;strokeColor=none;align=center;fillColor=none;html=1;verticalAlign=middle;whiteSpace=wrap;rounded=0;" parent="1" vertex="1">
                    <mxGeometry x="4741.5" y="79" width="60" height="30" as="geometry"/>
                </mxCell>
                <mxCell id="149" value="Contact" style="text;strokeColor=none;align=center;fillColor=none;html=1;verticalAlign=middle;whiteSpace=wrap;rounded=0;" parent="1" vertex="1">
                    <mxGeometry x="4861.5" y="79" width="60" height="30" as="geometry"/>
                </mxCell>
                <mxCell id="150" value="" style="shape=actor;whiteSpace=wrap;html=1;rounded=0;shadow=1;glass=1;sketch=0;fontSize=28;fillColor=#6a00ff;fontColor=#ffffff;strokeColor=#3700CC;gradientColor=default;" parent="1" vertex="1">
                    <mxGeometry x="4961.5" y="64" width="40" height="60" as="geometry"/>
                </mxCell>
                <mxCell id="151" value="LOGO" style="shape=sumEllipse;perimeter=ellipsePerimeter;whiteSpace=wrap;html=1;backgroundOutline=1;fillColor=#0050ef;fontColor=#ffffff;strokeColor=#001DBC;" parent="1" vertex="1">
                    <mxGeometry x="4241.5" y="54" width="80" height="80" as="geometry"/>
                </mxCell>
                <mxCell id="152" value="footer 1" style="rounded=0;whiteSpace=wrap;html=1;fontSize=28;fillColor=#6a00ff;fontColor=#ffffff;strokeColor=#3700CC;" parent="1" vertex="1">
                    <mxGeometry x="4201.5" y="1044" width="827" height="99" as="geometry"/>
                </mxCell>
                <mxCell id="153" value="footer Bottom" style="rounded=0;whiteSpace=wrap;html=1;fontSize=28;fillColor=#0050ef;fontColor=#ffffff;strokeColor=#001DBC;" parent="1" vertex="1">
                    <mxGeometry x="4201.5" y="1143" width="827" height="60" as="geometry"/>
                </mxCell>
                <mxCell id="154" value="" style="dashed=0;outlineConnect=0;html=1;align=center;labelPosition=center;verticalLabelPosition=bottom;verticalAlign=top;shape=mxgraph.webicons.github;gradientColor=#DFDEDE;rounded=0;shadow=1;glass=1;sketch=0;fontSize=28;" parent="1" vertex="1">
                    <mxGeometry x="4264.83" y="1166.8" width="17.2" height="17.2" as="geometry"/>
                </mxCell>
                <mxCell id="155" value="" style="dashed=0;outlineConnect=0;html=1;align=center;labelPosition=center;verticalLabelPosition=bottom;verticalAlign=top;shape=mxgraph.webicons.vimeo;fillColor=#A4EDF9;gradientColor=#2B8ED9;rounded=0;shadow=1;glass=1;sketch=0;fontSize=28;" parent="1" vertex="1">
                    <mxGeometry x="4241.5" y="1167" width="17.2" height="17.2" as="geometry"/>
                </mxCell>
                <mxCell id="156" value="" style="dashed=0;outlineConnect=0;html=1;align=center;labelPosition=center;verticalLabelPosition=bottom;verticalAlign=top;shape=mxgraph.webicons.facebook;fillColor=#6294E4;gradientColor=#1A2665;rounded=0;shadow=1;glass=1;sketch=0;fontSize=28;" parent="1" vertex="1">
                    <mxGeometry x="4216.88" y="1166.8" width="20.28" height="17.2" as="geometry"/>
                </mxCell>
                <mxCell id="158" value="formulaire de contact&lt;br&gt;sur les commande&amp;nbsp;" style="rounded=1;whiteSpace=wrap;html=1;fontSize=28;fillColor=#0050ef;fontColor=#ffffff;strokeColor=#001DBC;shadow=1;" parent="1" vertex="1">
                    <mxGeometry x="4321.5" y="195" width="600" height="200" as="geometry"/>
                </mxCell>
                <mxCell id="160" value="contact par chat" style="rounded=1;whiteSpace=wrap;html=1;fontSize=28;fillColor=#0050ef;fontColor=#ffffff;strokeColor=#001DBC;shadow=1;" parent="1" vertex="1">
                    <mxGeometry x="4494.5" y="515" width="241" height="200" as="geometry"/>
                </mxCell>
                <mxCell id="161" value="contact par mail" style="rounded=1;whiteSpace=wrap;html=1;fontSize=28;fillColor=#0050ef;fontColor=#ffffff;strokeColor=#001DBC;shadow=1;" parent="1" vertex="1">
                    <mxGeometry x="4774.5" y="515" width="241" height="200" as="geometry"/>
                </mxCell>
                <mxCell id="162" value="Photos Produit slider" style="rounded=1;whiteSpace=wrap;html=1;fontSize=28;fillColor=#6a00ff;fontColor=#ffffff;strokeColor=#3700CC;shadow=1;gradientColor=default;" parent="1" vertex="1">
                    <mxGeometry x="4315" y="795" width="600" height="200" as="geometry"/>
                </mxCell>
                <mxCell id="184" value="" style="rounded=1;whiteSpace=wrap;html=1;fillColor=#0050ef;fontColor=#ffffff;strokeColor=#001DBC;glass=1;shadow=1;" parent="1" vertex="1">
                    <mxGeometry x="5450" y="38" width="100" height="40" as="geometry"/>
                </mxCell>
                <mxCell id="185" value="" style="rounded=1;whiteSpace=wrap;html=1;fillColor=#0050ef;fontColor=#ffffff;strokeColor=#001DBC;glass=1;shadow=1;" parent="1" vertex="1">
                    <mxGeometry x="5570" y="38" width="100" height="40" as="geometry"/>
                </mxCell>
                <mxCell id="186" value="" style="rounded=1;whiteSpace=wrap;html=1;fillColor=#0050ef;fontColor=#ffffff;strokeColor=#001DBC;glass=1;shadow=1;" parent="1" vertex="1">
                    <mxGeometry x="5690" y="38" width="100" height="40" as="geometry"/>
                </mxCell>
                <mxCell id="187" value="" style="rounded=1;whiteSpace=wrap;html=1;fillColor=#0050ef;fontColor=#ffffff;strokeColor=#001DBC;glass=1;shadow=1;" parent="1" vertex="1">
                    <mxGeometry x="5810" y="38" width="100" height="40" as="geometry"/>
                </mxCell>
                <mxCell id="188" value="" style="rounded=1;whiteSpace=wrap;html=1;fillColor=#0050ef;fontColor=#ffffff;strokeColor=#001DBC;glass=1;shadow=1;" parent="1" vertex="1">
                    <mxGeometry x="5930" y="38" width="100" height="40" as="geometry"/>
                </mxCell>
                <mxCell id="189" value="Acceuil" style="text;strokeColor=none;align=center;fillColor=none;html=1;verticalAlign=middle;whiteSpace=wrap;rounded=0;" parent="1" vertex="1">
                    <mxGeometry x="5470" y="43" width="60" height="30" as="geometry"/>
                </mxCell>
                <mxCell id="190" value="Produit" style="text;strokeColor=none;align=center;fillColor=none;html=1;verticalAlign=middle;whiteSpace=wrap;rounded=0;" parent="1" vertex="1">
                    <mxGeometry x="5590" y="43" width="60" height="30" as="geometry"/>
                </mxCell>
                <mxCell id="191" value="Shop" style="text;strokeColor=none;align=center;fillColor=none;html=1;verticalAlign=middle;whiteSpace=wrap;rounded=0;" parent="1" vertex="1">
                    <mxGeometry x="5710" y="43" width="60" height="30" as="geometry"/>
                </mxCell>
                <mxCell id="192" value="Blog" style="text;strokeColor=none;align=center;fillColor=none;html=1;verticalAlign=middle;whiteSpace=wrap;rounded=0;" parent="1" vertex="1">
                    <mxGeometry x="5830" y="43" width="60" height="30" as="geometry"/>
                </mxCell>
                <mxCell id="193" value="Contact" style="text;strokeColor=none;align=center;fillColor=none;html=1;verticalAlign=middle;whiteSpace=wrap;rounded=0;" parent="1" vertex="1">
                    <mxGeometry x="5950" y="43" width="60" height="30" as="geometry"/>
                </mxCell>
                <mxCell id="194" value="" style="shape=actor;whiteSpace=wrap;html=1;rounded=0;shadow=1;glass=1;sketch=0;fontSize=28;fillColor=#6a00ff;fontColor=#ffffff;strokeColor=#3700CC;gradientColor=default;" parent="1" vertex="1">
                    <mxGeometry x="6050" y="28" width="40" height="60" as="geometry"/>
                </mxCell>
                <mxCell id="195" value="LOGO" style="shape=sumEllipse;perimeter=ellipsePerimeter;whiteSpace=wrap;html=1;backgroundOutline=1;fillColor=#0050ef;fontColor=#ffffff;strokeColor=#001DBC;" parent="1" vertex="1">
                    <mxGeometry x="5330" y="18" width="80" height="80" as="geometry"/>
                </mxCell>
                <mxCell id="196" value="footer 1" style="rounded=0;whiteSpace=wrap;html=1;fontSize=28;fillColor=#6a00ff;fontColor=#ffffff;strokeColor=#3700CC;" parent="1" vertex="1">
                    <mxGeometry x="5290" y="1008" width="827" height="99" as="geometry"/>
                </mxCell>
                <mxCell id="197" value="footer Bottom" style="rounded=0;whiteSpace=wrap;html=1;fontSize=28;fillColor=#0050ef;fontColor=#ffffff;strokeColor=#001DBC;" parent="1" vertex="1">
                    <mxGeometry x="5290" y="1107" width="827" height="60" as="geometry"/>
                </mxCell>
                <mxCell id="198" value="" style="dashed=0;outlineConnect=0;html=1;align=center;labelPosition=center;verticalLabelPosition=bottom;verticalAlign=top;shape=mxgraph.webicons.github;gradientColor=#DFDEDE;rounded=0;shadow=1;glass=1;sketch=0;fontSize=28;" parent="1" vertex="1">
                    <mxGeometry x="5353.33" y="1130.8" width="17.2" height="17.2" as="geometry"/>
                </mxCell>
                <mxCell id="199" value="" style="dashed=0;outlineConnect=0;html=1;align=center;labelPosition=center;verticalLabelPosition=bottom;verticalAlign=top;shape=mxgraph.webicons.vimeo;fillColor=#A4EDF9;gradientColor=#2B8ED9;rounded=0;shadow=1;glass=1;sketch=0;fontSize=28;" parent="1" vertex="1">
                    <mxGeometry x="5330" y="1131" width="17.2" height="17.2" as="geometry"/>
                </mxCell>
                <mxCell id="200" value="" style="dashed=0;outlineConnect=0;html=1;align=center;labelPosition=center;verticalLabelPosition=bottom;verticalAlign=top;shape=mxgraph.webicons.facebook;fillColor=#6294E4;gradientColor=#1A2665;rounded=0;shadow=1;glass=1;sketch=0;fontSize=28;" parent="1" vertex="1">
                    <mxGeometry x="5305.38" y="1130.8" width="20.28" height="17.2" as="geometry"/>
                </mxCell>
                <mxCell id="207" value="" style="rounded=1;whiteSpace=wrap;html=1;fillColor=#0050ef;fontColor=#ffffff;strokeColor=#001DBC;glass=1;shadow=1;" parent="1" vertex="1">
                    <mxGeometry x="331" y="-16" width="320" height="40" as="geometry"/>
                </mxCell>
                <mxCell id="210" value="" style="edgeStyle=none;html=1;fontSize=21;entryX=0.9;entryY=0.25;entryDx=0;entryDy=0;entryPerimeter=0;" parent="1" source="206" target="9" edge="1">
                    <mxGeometry relative="1" as="geometry"/>
                </mxCell>
                <mxCell id="206" value="" style="sketch=0;html=1;aspect=fixed;shadow=0;align=center;verticalAlign=top;shape=mxgraph.gcp2.search;fontSize=21;fillColor=#FFFFFF;" parent="1" vertex="1">
                    <mxGeometry x="581" y="-6" width="29.7" height="30" as="geometry"/>
                </mxCell>
                <mxCell id="215" value="" style="rounded=1;whiteSpace=wrap;html=1;fillColor=#0050ef;fontColor=#ffffff;strokeColor=#001DBC;glass=1;shadow=1;" parent="1" vertex="1">
                    <mxGeometry x="1333.5" y="-22" width="320" height="40" as="geometry"/>
                </mxCell>
                <mxCell id="216" value="" style="sketch=0;html=1;aspect=fixed;shadow=0;align=center;verticalAlign=top;shape=mxgraph.gcp2.search;fontSize=21;fillColor=#FFFFFF;" parent="1" vertex="1">
                    <mxGeometry x="1609.5" y="-17" width="29.7" height="30" as="geometry"/>
                </mxCell>
                <mxCell id="221" value="" style="rounded=1;whiteSpace=wrap;html=1;fillColor=#0050ef;fontColor=#ffffff;strokeColor=#001DBC;glass=1;shadow=1;" parent="1" vertex="1">
                    <mxGeometry x="2314" y="-21" width="320" height="40" as="geometry"/>
                </mxCell>
                <mxCell id="222" value="" style="sketch=0;html=1;aspect=fixed;shadow=0;align=center;verticalAlign=top;shape=mxgraph.gcp2.search;fontSize=21;fillColor=#FFFFFF;" parent="1" vertex="1">
                    <mxGeometry x="2590" y="-16" width="29.7" height="30" as="geometry"/>
                </mxCell>
                <mxCell id="223" value="" style="rounded=1;whiteSpace=wrap;html=1;fillColor=#0050ef;fontColor=#ffffff;strokeColor=#001DBC;glass=1;shadow=1;" parent="1" vertex="1">
                    <mxGeometry x="3344" y="15" width="320" height="40" as="geometry"/>
                </mxCell>
                <mxCell id="224" value="" style="sketch=0;html=1;aspect=fixed;shadow=0;align=center;verticalAlign=top;shape=mxgraph.gcp2.search;fontSize=21;fillColor=#FFFFFF;" parent="1" vertex="1">
                    <mxGeometry x="3620" y="20" width="29.7" height="30" as="geometry"/>
                </mxCell>
                <mxCell id="225" value="" style="rounded=1;whiteSpace=wrap;html=1;fillColor=#0050ef;fontColor=#ffffff;strokeColor=#001DBC;glass=1;shadow=1;" parent="1" vertex="1">
                    <mxGeometry x="4481.5" y="14" width="320" height="40" as="geometry"/>
                </mxCell>
                <mxCell id="226" value="" style="sketch=0;html=1;aspect=fixed;shadow=0;align=center;verticalAlign=top;shape=mxgraph.gcp2.search;fontSize=21;fillColor=#FFFFFF;" parent="1" vertex="1">
                    <mxGeometry x="4757.5" y="19" width="29.7" height="30" as="geometry"/>
                </mxCell>
                <mxCell id="227" value="" style="rounded=1;whiteSpace=wrap;html=1;fillColor=#0050ef;fontColor=#ffffff;strokeColor=#001DBC;glass=1;shadow=1;" parent="1" vertex="1">
                    <mxGeometry x="5570" y="-22" width="320" height="40" as="geometry"/>
                </mxCell>
                <mxCell id="228" value="" style="sketch=0;html=1;aspect=fixed;shadow=0;align=center;verticalAlign=top;shape=mxgraph.gcp2.search;fontSize=21;fillColor=#FFFFFF;" parent="1" vertex="1">
                    <mxGeometry x="5846" y="-17" width="29.7" height="30" as="geometry"/>
                </mxCell>
                <mxCell id="232" value="footer Bottom" style="rounded=0;whiteSpace=wrap;html=1;fontSize=28;fillColor=#0050ef;fontColor=#ffffff;strokeColor=#001DBC;" parent="1" vertex="1">
                    <mxGeometry x="2034" y="1109.4" width="827" height="60" as="geometry"/>
                </mxCell>
                <mxCell id="233" value="" style="dashed=0;outlineConnect=0;html=1;align=center;labelPosition=center;verticalLabelPosition=bottom;verticalAlign=top;shape=mxgraph.webicons.github;gradientColor=#DFDEDE;rounded=0;shadow=1;glass=1;sketch=0;fontSize=28;" parent="1" vertex="1">
                    <mxGeometry x="2097.33" y="1130.2" width="17.2" height="17.2" as="geometry"/>
                </mxCell>
                <mxCell id="234" value="" style="dashed=0;outlineConnect=0;html=1;align=center;labelPosition=center;verticalLabelPosition=bottom;verticalAlign=top;shape=mxgraph.webicons.vimeo;fillColor=#A4EDF9;gradientColor=#2B8ED9;rounded=0;shadow=1;glass=1;sketch=0;fontSize=28;" parent="1" vertex="1">
                    <mxGeometry x="2074" y="1130.4" width="17.2" height="17.2" as="geometry"/>
                </mxCell>
                <mxCell id="235" value="" style="dashed=0;outlineConnect=0;html=1;align=center;labelPosition=center;verticalLabelPosition=bottom;verticalAlign=top;shape=mxgraph.webicons.facebook;fillColor=#6294E4;gradientColor=#1A2665;rounded=0;shadow=1;glass=1;sketch=0;fontSize=28;" parent="1" vertex="1">
                    <mxGeometry x="2049.38" y="1130.2" width="20.28" height="17.2" as="geometry"/>
                </mxCell>
                <mxCell id="8-FVZTYYCzLK7h8uSWiE-237" value="" style="shape=mxgraph.signs.tech.mail;html=1;pointerEvents=1;fillColor=#000000;strokeColor=none;verticalLabelPosition=bottom;verticalAlign=top;align=center;sketch=0;" parent="1" vertex="1">
                    <mxGeometry x="4855.2" y="632.51" width="72.6" height="55" as="geometry"/>
                </mxCell>
                <mxCell id="8-FVZTYYCzLK7h8uSWiE-238" value="" style="shape=mxgraph.signs.healthcare.tdd;html=1;pointerEvents=1;fillColor=#000000;strokeColor=none;verticalLabelPosition=bottom;verticalAlign=top;align=center;sketch=0;" parent="1" vertex="1">
                    <mxGeometry x="4587.96" y="632.51" width="54.07" height="63.09" as="geometry"/>
                </mxCell>
                <mxCell id="272" value="&lt;font color=&quot;#000000&quot; style=&quot;font-size: 54px;&quot;&gt;Acceuil&lt;/font&gt;" style="text;strokeColor=none;align=center;fillColor=none;html=1;verticalAlign=middle;whiteSpace=wrap;rounded=0;fontColor=#FFFFFF;fontSize=54;" vertex="1" parent="1">
                    <mxGeometry x="360" y="-240" width="180" height="90" as="geometry"/>
                </mxCell>
                <mxCell id="273" value="&lt;font color=&quot;#000000&quot; style=&quot;font-size: 54px;&quot;&gt;Produit&lt;/font&gt;" style="text;strokeColor=none;align=center;fillColor=none;html=1;verticalAlign=middle;whiteSpace=wrap;rounded=0;fontColor=#FFFFFF;fontSize=54;" vertex="1" parent="1">
                    <mxGeometry x="1380.88" y="-225" width="180" height="90" as="geometry"/>
                </mxCell>
                <mxCell id="274" value="&lt;font color=&quot;#000000&quot; style=&quot;font-size: 54px;&quot;&gt;Shop&lt;/font&gt;" style="text;strokeColor=none;align=center;fillColor=none;html=1;verticalAlign=middle;whiteSpace=wrap;rounded=0;fontColor=#FFFFFF;fontSize=54;" vertex="1" parent="1">
                    <mxGeometry x="2369.88" y="-224" width="180" height="90" as="geometry"/>
                </mxCell>
                <mxCell id="275" value="&lt;font color=&quot;#000000&quot; style=&quot;font-size: 54px;&quot;&gt;Blog&lt;/font&gt;" style="text;strokeColor=none;align=center;fillColor=none;html=1;verticalAlign=middle;whiteSpace=wrap;rounded=0;fontColor=#FFFFFF;fontSize=54;" vertex="1" parent="1">
                    <mxGeometry x="3400" y="-224" width="180" height="90" as="geometry"/>
                </mxCell>
                <mxCell id="276" value="&lt;font color=&quot;#000000&quot; style=&quot;font-size: 54px;&quot;&gt;Contact&lt;/font&gt;" style="text;strokeColor=none;align=center;fillColor=none;html=1;verticalAlign=middle;whiteSpace=wrap;rounded=0;fontColor=#FFFFFF;fontSize=54;" vertex="1" parent="1">
                    <mxGeometry x="4551.5" y="-224" width="180" height="90" as="geometry"/>
                </mxCell>
                <mxCell id="279" value="&lt;font color=&quot;#000000&quot; style=&quot;font-size: 54px;&quot;&gt;Login&lt;/font&gt;" style="text;strokeColor=none;align=center;fillColor=none;html=1;verticalAlign=middle;whiteSpace=wrap;rounded=0;fontColor=#FFFFFF;fontSize=54;" vertex="1" parent="1">
                    <mxGeometry x="5640" y="-224" width="180" height="90" as="geometry"/>
                </mxCell>
                <mxCell id="281" value="LOGO" style="shape=sumEllipse;perimeter=ellipsePerimeter;whiteSpace=wrap;html=1;backgroundOutline=1;fillColor=#0050ef;fontColor=#ffffff;strokeColor=#001DBC;" vertex="1" parent="1">
                    <mxGeometry x="406" y="1499" width="117" height="117" as="geometry"/>
                </mxCell>
                <mxCell id="291" value="&lt;b&gt;&lt;font style=&quot;font-size: 28px;&quot;&gt;Banniere/Slider&lt;/font&gt;&lt;/b&gt;" style="rounded=0;whiteSpace=wrap;html=1;fillColor=#0050ef;fontColor=#ffffff;strokeColor=#001DBC;glass=0;" vertex="1" parent="1">
                    <mxGeometry x="143.99999999999997" y="1687" width="620" height="170" as="geometry"/>
                </mxCell>
                <mxCell id="292" value="Présentation Produits" style="rounded=1;whiteSpace=wrap;html=1;fontSize=28;fillColor=#6a00ff;fontColor=#ffffff;strokeColor=#3700CC;shadow=1;gradientColor=default;" vertex="1" parent="1">
                    <mxGeometry x="155.66" y="1865" width="600" height="200" as="geometry"/>
                </mxCell>
                <mxCell id="293" value="Offre Promotion" style="rounded=1;whiteSpace=wrap;html=1;fontSize=28;fillColor=#6a00ff;fontColor=#ffffff;strokeColor=#3700CC;shadow=1;gradientColor=default;" vertex="1" parent="1">
                    <mxGeometry x="153.68999999999997" y="2067" width="600" height="200" as="geometry"/>
                </mxCell>
                <mxCell id="294" value="card Catégorie" style="rounded=1;whiteSpace=wrap;html=1;fontSize=28;fillColor=#0050ef;fontColor=#ffffff;strokeColor=#001DBC;gradientColor=default;" vertex="1" parent="1">
                    <mxGeometry x="141.68999999999997" y="2277" width="200" height="250" as="geometry"/>
                </mxCell>
                <mxCell id="295" value="footer Bottom" style="rounded=0;whiteSpace=wrap;html=1;fontSize=28;fillColor=#0050ef;fontColor=#ffffff;strokeColor=#001DBC;" vertex="1" parent="1">
                    <mxGeometry x="131" y="2647" width="640" height="59" as="geometry"/>
                </mxCell>
                <mxCell id="296" value="card Best produits" style="rounded=1;whiteSpace=wrap;html=1;fontSize=28;fillColor=#0050ef;fontColor=#ffffff;strokeColor=#001DBC;gradientColor=default;" vertex="1" parent="1">
                    <mxGeometry x="353.68999999999994" y="2277" width="200" height="250" as="geometry"/>
                </mxCell>
                <mxCell id="298" value="card Promotion" style="rounded=1;whiteSpace=wrap;html=1;fontSize=28;fillColor=#0050ef;fontColor=#ffffff;strokeColor=#001DBC;gradientColor=default;" vertex="1" parent="1">
                    <mxGeometry x="566.3100000000001" y="2277" width="200" height="250" as="geometry"/>
                </mxCell>
                <mxCell id="299" value="footer 1" style="rounded=0;whiteSpace=wrap;html=1;fontSize=28;fillColor=#6a00ff;fontColor=#ffffff;strokeColor=#3700CC;" vertex="1" parent="1">
                    <mxGeometry x="131" y="2547" width="640" height="99" as="geometry"/>
                </mxCell>
                <mxCell id="300" value="" style="shape=singleArrow;direction=west;whiteSpace=wrap;html=1;fontSize=28;" vertex="1" parent="1">
                    <mxGeometry x="155.66" y="1758" width="33.33" height="20" as="geometry"/>
                </mxCell>
                <mxCell id="301" value="" style="shape=singleArrow;direction=west;whiteSpace=wrap;html=1;fontSize=28;flipV=0;flipH=1;" vertex="1" parent="1">
                    <mxGeometry x="722.3300000000003" y="1762.5" width="33.33" height="11" as="geometry"/>
                </mxCell>
                <mxCell id="302" value="" style="dashed=0;outlineConnect=0;html=1;align=center;labelPosition=center;verticalLabelPosition=bottom;verticalAlign=top;shape=mxgraph.webicons.facebook;fillColor=#6294E4;gradientColor=#1A2665;rounded=0;shadow=1;glass=1;sketch=0;fontSize=28;" vertex="1" parent="1">
                    <mxGeometry x="135.38" y="2669.7999999999997" width="20.28" height="17.2" as="geometry"/>
                </mxCell>
                <mxCell id="303" value="" style="dashed=0;outlineConnect=0;html=1;align=center;labelPosition=center;verticalLabelPosition=bottom;verticalAlign=top;shape=mxgraph.webicons.vimeo;fillColor=#A4EDF9;gradientColor=#2B8ED9;rounded=0;shadow=1;glass=1;sketch=0;fontSize=28;" vertex="1" parent="1">
                    <mxGeometry x="159.99999999999997" y="2670" width="17.2" height="17.2" as="geometry"/>
                </mxCell>
                <mxCell id="304" value="" style="dashed=0;outlineConnect=0;html=1;align=center;labelPosition=center;verticalLabelPosition=bottom;verticalAlign=top;shape=mxgraph.webicons.github;gradientColor=#DFDEDE;rounded=0;shadow=1;glass=1;sketch=0;fontSize=28;" vertex="1" parent="1">
                    <mxGeometry x="183.33" y="2669.7999999999997" width="17.2" height="17.2" as="geometry"/>
                </mxCell>
                <mxCell id="305" value="" style="shape=actor;whiteSpace=wrap;html=1;rounded=0;shadow=1;glass=1;sketch=0;fontSize=28;fillColor=#6a00ff;fontColor=#ffffff;strokeColor=#3700CC;gradientColor=default;" vertex="1" parent="1">
                    <mxGeometry x="695.0000000000001" y="1616" width="40" height="60" as="geometry"/>
                </mxCell>
                <mxCell id="306" value="" style="rounded=1;whiteSpace=wrap;html=1;fillColor=#0050ef;fontColor=#ffffff;strokeColor=#001DBC;glass=1;shadow=1;" vertex="1" parent="1">
                    <mxGeometry x="188.98999999999998" y="1547" width="115.38" height="40" as="geometry"/>
                </mxCell>
                <mxCell id="308" value="" style="sketch=0;html=1;aspect=fixed;shadow=0;align=center;verticalAlign=top;shape=mxgraph.gcp2.search;fontSize=21;fillColor=#FFFFFF;" vertex="1" parent="1">
                    <mxGeometry x="231.83" y="1552" width="29.7" height="30" as="geometry"/>
                </mxCell>
                <mxCell id="323" value="" style="rounded=1;whiteSpace=wrap;html=1;" vertex="1" parent="1">
                    <mxGeometry x="1113.5" y="1440" width="660" height="1390" as="geometry"/>
                </mxCell>
                <mxCell id="339" value="footer Bottom" style="rounded=0;whiteSpace=wrap;html=1;fontSize=28;fillColor=#0050ef;fontColor=#ffffff;strokeColor=#001DBC;" vertex="1" parent="1">
                    <mxGeometry x="1124.5" y="2667" width="640" height="59" as="geometry"/>
                </mxCell>
                <mxCell id="342" value="footer 1" style="rounded=0;whiteSpace=wrap;html=1;fontSize=28;fillColor=#6a00ff;fontColor=#ffffff;strokeColor=#3700CC;" vertex="1" parent="1">
                    <mxGeometry x="1124.5" y="2567" width="640" height="99" as="geometry"/>
                </mxCell>
                <mxCell id="345" value="" style="dashed=0;outlineConnect=0;html=1;align=center;labelPosition=center;verticalLabelPosition=bottom;verticalAlign=top;shape=mxgraph.webicons.facebook;fillColor=#6294E4;gradientColor=#1A2665;rounded=0;shadow=1;glass=1;sketch=0;fontSize=28;" vertex="1" parent="1">
                    <mxGeometry x="1128.88" y="2689.7999999999997" width="20.28" height="17.2" as="geometry"/>
                </mxCell>
                <mxCell id="346" value="" style="dashed=0;outlineConnect=0;html=1;align=center;labelPosition=center;verticalLabelPosition=bottom;verticalAlign=top;shape=mxgraph.webicons.vimeo;fillColor=#A4EDF9;gradientColor=#2B8ED9;rounded=0;shadow=1;glass=1;sketch=0;fontSize=28;" vertex="1" parent="1">
                    <mxGeometry x="1153.5" y="2690" width="17.2" height="17.2" as="geometry"/>
                </mxCell>
                <mxCell id="347" value="" style="dashed=0;outlineConnect=0;html=1;align=center;labelPosition=center;verticalLabelPosition=bottom;verticalAlign=top;shape=mxgraph.webicons.github;gradientColor=#DFDEDE;rounded=0;shadow=1;glass=1;sketch=0;fontSize=28;" vertex="1" parent="1">
                    <mxGeometry x="1176.83" y="2689.7999999999997" width="17.2" height="17.2" as="geometry"/>
                </mxCell>
                <mxCell id="348" value="" style="shape=actor;whiteSpace=wrap;html=1;rounded=0;shadow=1;glass=1;sketch=0;fontSize=28;fillColor=#6a00ff;fontColor=#ffffff;strokeColor=#3700CC;gradientColor=default;" vertex="1" parent="1">
                    <mxGeometry x="1688.5" y="1636" width="40" height="60" as="geometry"/>
                </mxCell>
                <mxCell id="357" value="&lt;p&gt;&lt;br&gt;&lt;/p&gt;" style="verticalLabelPosition=bottom;verticalAlign=top;html=1;shape=mxgraph.basic.diag_round_rect;dx=6;whiteSpace=wrap;fillColor=#0050ef;fontColor=#ffffff;strokeColor=#001DBC;" vertex="1" parent="1">
                    <mxGeometry x="1153.5" y="1830" width="590" height="250" as="geometry"/>
                </mxCell>
                <mxCell id="358" value="&lt;font style=&quot;font-size: 21px;&quot;&gt;Produit&lt;br&gt;1&lt;br&gt;&lt;/font&gt;" style="text;strokeColor=none;align=center;fillColor=none;html=1;verticalAlign=middle;whiteSpace=wrap;rounded=0;" vertex="1" parent="1">
                    <mxGeometry x="1410.69" y="1940" width="60" height="30" as="geometry"/>
                </mxCell>
                <mxCell id="363" value="&lt;p&gt;&lt;br&gt;&lt;/p&gt;" style="verticalLabelPosition=bottom;verticalAlign=top;html=1;shape=mxgraph.basic.diag_round_rect;dx=6;whiteSpace=wrap;fillColor=#0050ef;fontColor=#ffffff;strokeColor=#001DBC;" vertex="1" parent="1">
                    <mxGeometry x="1152.19" y="2100" width="590" height="250" as="geometry"/>
                </mxCell>
                <mxCell id="364" value="&lt;font style=&quot;font-size: 21px;&quot;&gt;Produit 2&lt;/font&gt;" style="text;strokeColor=none;align=center;fillColor=none;html=1;verticalAlign=middle;whiteSpace=wrap;rounded=0;" vertex="1" parent="1">
                    <mxGeometry x="1409.38" y="2210" width="60" height="30" as="geometry"/>
                </mxCell>
                <mxCell id="365" value="" style="shape=singleArrow;direction=west;whiteSpace=wrap;html=1;fontSize=28;flipV=0;flipH=1;rotation=90;fillColor=#FFFFFF;" vertex="1" parent="1">
                    <mxGeometry x="1377.26" y="2430" width="124.23" height="41" as="geometry"/>
                </mxCell>
                <mxCell id="366" value="" style="rounded=1;whiteSpace=wrap;html=1;" vertex="1" parent="1">
                    <mxGeometry x="2129.88" y="1440" width="660" height="1390" as="geometry"/>
                </mxCell>
                <mxCell id="378" value="footer Bottom" style="rounded=0;whiteSpace=wrap;html=1;fontSize=28;fillColor=#0050ef;fontColor=#ffffff;strokeColor=#001DBC;" vertex="1" parent="1">
                    <mxGeometry x="2140.88" y="2667" width="640" height="59" as="geometry"/>
                </mxCell>
                <mxCell id="379" value="footer 1" style="rounded=0;whiteSpace=wrap;html=1;fontSize=28;fillColor=#6a00ff;fontColor=#ffffff;strokeColor=#3700CC;" vertex="1" parent="1">
                    <mxGeometry x="2140.88" y="2567" width="640" height="99" as="geometry"/>
                </mxCell>
                <mxCell id="380" value="" style="dashed=0;outlineConnect=0;html=1;align=center;labelPosition=center;verticalLabelPosition=bottom;verticalAlign=top;shape=mxgraph.webicons.facebook;fillColor=#6294E4;gradientColor=#1A2665;rounded=0;shadow=1;glass=1;sketch=0;fontSize=28;" vertex="1" parent="1">
                    <mxGeometry x="2145.26" y="2689.7999999999997" width="20.28" height="17.2" as="geometry"/>
                </mxCell>
                <mxCell id="381" value="" style="dashed=0;outlineConnect=0;html=1;align=center;labelPosition=center;verticalLabelPosition=bottom;verticalAlign=top;shape=mxgraph.webicons.vimeo;fillColor=#A4EDF9;gradientColor=#2B8ED9;rounded=0;shadow=1;glass=1;sketch=0;fontSize=28;" vertex="1" parent="1">
                    <mxGeometry x="2169.88" y="2690" width="17.2" height="17.2" as="geometry"/>
                </mxCell>
                <mxCell id="382" value="" style="dashed=0;outlineConnect=0;html=1;align=center;labelPosition=center;verticalLabelPosition=bottom;verticalAlign=top;shape=mxgraph.webicons.github;gradientColor=#DFDEDE;rounded=0;shadow=1;glass=1;sketch=0;fontSize=28;" vertex="1" parent="1">
                    <mxGeometry x="2193.21" y="2689.7999999999997" width="17.2" height="17.2" as="geometry"/>
                </mxCell>
                <mxCell id="383" value="" style="shape=actor;whiteSpace=wrap;html=1;rounded=0;shadow=1;glass=1;sketch=0;fontSize=28;fillColor=#6a00ff;fontColor=#ffffff;strokeColor=#3700CC;gradientColor=default;" vertex="1" parent="1">
                    <mxGeometry x="2704.88" y="1636" width="40" height="60" as="geometry"/>
                </mxCell>
                <mxCell id="394" value="" style="shape=singleArrow;direction=west;whiteSpace=wrap;html=1;fontSize=28;flipV=0;flipH=1;rotation=90;fillColor=#FFFFFF;" vertex="1" parent="1">
                    <mxGeometry x="2393.6400000000003" y="2430" width="124.23" height="41" as="geometry"/>
                </mxCell>
                <mxCell id="395" value="&lt;span style=&quot;font-size: 28px;&quot;&gt;&lt;b&gt;Photo boutique / Map&lt;/b&gt;&lt;/span&gt;" style="rounded=0;whiteSpace=wrap;html=1;fillColor=#0050ef;fontColor=#ffffff;strokeColor=#001DBC;glass=0;" vertex="1" parent="1">
                    <mxGeometry x="2153.57" y="1720" width="620" height="380" as="geometry"/>
                </mxCell>
                <mxCell id="396" value="Introduction Texte Boutique" style="rounded=1;whiteSpace=wrap;html=1;fontSize=28;fillColor=#6a00ff;fontColor=#ffffff;strokeColor=#3700CC;shadow=1;gradientColor=default;" vertex="1" parent="1">
                    <mxGeometry x="2159.88" y="2138" width="600" height="200" as="geometry"/>
                </mxCell>
                <mxCell id="397" value="" style="rounded=1;whiteSpace=wrap;html=1;" vertex="1" parent="1">
                    <mxGeometry x="3137.5" y="1440" width="660" height="1390" as="geometry"/>
                </mxCell>
                <mxCell id="409" value="footer Bottom" style="rounded=0;whiteSpace=wrap;html=1;fontSize=28;fillColor=#0050ef;fontColor=#ffffff;strokeColor=#001DBC;" vertex="1" parent="1">
                    <mxGeometry x="3148.5" y="2667" width="640" height="59" as="geometry"/>
                </mxCell>
                <mxCell id="410" value="footer 1" style="rounded=0;whiteSpace=wrap;html=1;fontSize=28;fillColor=#6a00ff;fontColor=#ffffff;strokeColor=#3700CC;" vertex="1" parent="1">
                    <mxGeometry x="3148.5" y="2567" width="640" height="99" as="geometry"/>
                </mxCell>
                <mxCell id="411" value="" style="dashed=0;outlineConnect=0;html=1;align=center;labelPosition=center;verticalLabelPosition=bottom;verticalAlign=top;shape=mxgraph.webicons.facebook;fillColor=#6294E4;gradientColor=#1A2665;rounded=0;shadow=1;glass=1;sketch=0;fontSize=28;" vertex="1" parent="1">
                    <mxGeometry x="3152.88" y="2689.7999999999997" width="20.28" height="17.2" as="geometry"/>
                </mxCell>
                <mxCell id="412" value="" style="dashed=0;outlineConnect=0;html=1;align=center;labelPosition=center;verticalLabelPosition=bottom;verticalAlign=top;shape=mxgraph.webicons.vimeo;fillColor=#A4EDF9;gradientColor=#2B8ED9;rounded=0;shadow=1;glass=1;sketch=0;fontSize=28;" vertex="1" parent="1">
                    <mxGeometry x="3177.5" y="2690" width="17.2" height="17.2" as="geometry"/>
                </mxCell>
                <mxCell id="413" value="" style="dashed=0;outlineConnect=0;html=1;align=center;labelPosition=center;verticalLabelPosition=bottom;verticalAlign=top;shape=mxgraph.webicons.github;gradientColor=#DFDEDE;rounded=0;shadow=1;glass=1;sketch=0;fontSize=28;" vertex="1" parent="1">
                    <mxGeometry x="3200.83" y="2689.7999999999997" width="17.2" height="17.2" as="geometry"/>
                </mxCell>
                <mxCell id="414" value="" style="shape=actor;whiteSpace=wrap;html=1;rounded=0;shadow=1;glass=1;sketch=0;fontSize=28;fillColor=#6a00ff;fontColor=#ffffff;strokeColor=#3700CC;gradientColor=default;" vertex="1" parent="1">
                    <mxGeometry x="3712.5" y="1636" width="40" height="60" as="geometry"/>
                </mxCell>
                <mxCell id="417" value="" style="shape=singleArrow;direction=west;whiteSpace=wrap;html=1;fontSize=28;flipV=0;flipH=1;rotation=90;fillColor=#FFFFFF;" vertex="1" parent="1">
                    <mxGeometry x="3401.26" y="2430" width="124.23" height="41" as="geometry"/>
                </mxCell>
                <mxCell id="420" value="Article Blog" style="rounded=1;whiteSpace=wrap;html=1;fontSize=28;fillColor=#6a00ff;fontColor=#ffffff;strokeColor=#3700CC;shadow=1;gradientColor=default;" vertex="1" parent="1">
                    <mxGeometry x="3167.5" y="1730" width="600" height="630" as="geometry"/>
                </mxCell>
                <mxCell id="422" value="" style="rounded=1;whiteSpace=wrap;html=1;" vertex="1" parent="1">
                    <mxGeometry x="4311.5" y="1440" width="660" height="1390" as="geometry"/>
                </mxCell>
                <mxCell id="434" value="footer Bottom" style="rounded=0;whiteSpace=wrap;html=1;fontSize=28;fillColor=#0050ef;fontColor=#ffffff;strokeColor=#001DBC;" vertex="1" parent="1">
                    <mxGeometry x="4322.5" y="2667" width="640" height="59" as="geometry"/>
                </mxCell>
                <mxCell id="435" value="footer 1" style="rounded=0;whiteSpace=wrap;html=1;fontSize=28;fillColor=#6a00ff;fontColor=#ffffff;strokeColor=#3700CC;" vertex="1" parent="1">
                    <mxGeometry x="4322.5" y="2567" width="640" height="99" as="geometry"/>
                </mxCell>
                <mxCell id="436" value="" style="dashed=0;outlineConnect=0;html=1;align=center;labelPosition=center;verticalLabelPosition=bottom;verticalAlign=top;shape=mxgraph.webicons.facebook;fillColor=#6294E4;gradientColor=#1A2665;rounded=0;shadow=1;glass=1;sketch=0;fontSize=28;" vertex="1" parent="1">
                    <mxGeometry x="4326.88" y="2689.7999999999997" width="20.28" height="17.2" as="geometry"/>
                </mxCell>
                <mxCell id="437" value="" style="dashed=0;outlineConnect=0;html=1;align=center;labelPosition=center;verticalLabelPosition=bottom;verticalAlign=top;shape=mxgraph.webicons.vimeo;fillColor=#A4EDF9;gradientColor=#2B8ED9;rounded=0;shadow=1;glass=1;sketch=0;fontSize=28;" vertex="1" parent="1">
                    <mxGeometry x="4351.5" y="2690" width="17.2" height="17.2" as="geometry"/>
                </mxCell>
                <mxCell id="438" value="" style="dashed=0;outlineConnect=0;html=1;align=center;labelPosition=center;verticalLabelPosition=bottom;verticalAlign=top;shape=mxgraph.webicons.github;gradientColor=#DFDEDE;rounded=0;shadow=1;glass=1;sketch=0;fontSize=28;" vertex="1" parent="1">
                    <mxGeometry x="4374.83" y="2689.7999999999997" width="17.2" height="17.2" as="geometry"/>
                </mxCell>
                <mxCell id="439" value="" style="shape=actor;whiteSpace=wrap;html=1;rounded=0;shadow=1;glass=1;sketch=0;fontSize=28;fillColor=#6a00ff;fontColor=#ffffff;strokeColor=#3700CC;gradientColor=default;" vertex="1" parent="1">
                    <mxGeometry x="4886.5" y="1636" width="40" height="60" as="geometry"/>
                </mxCell>
                <mxCell id="442" value="" style="shape=singleArrow;direction=west;whiteSpace=wrap;html=1;fontSize=28;flipV=0;flipH=1;rotation=90;fillColor=#FFFFFF;" vertex="1" parent="1">
                    <mxGeometry x="4575.26" y="2469" width="124.23" height="41" as="geometry"/>
                </mxCell>
                <mxCell id="444" value="&lt;font color=&quot;#000000&quot;&gt;&lt;br&gt;&lt;/font&gt;" style="rounded=1;whiteSpace=wrap;html=1;fontSize=28;fillColor=#0050ef;fontColor=#ffffff;strokeColor=#001DBC;shadow=1;" vertex="1" parent="1">
                    <mxGeometry x="4347.16" y="1730" width="600" height="216" as="geometry"/>
                </mxCell>
                <mxCell id="445" value="" style="rounded=1;whiteSpace=wrap;html=1;fontSize=21;gradientColor=none;fillColor=#FFFFFF;" vertex="1" parent="1">
                    <mxGeometry x="4412.16" y="1809.5" width="470" height="116" as="geometry"/>
                </mxCell>
                <mxCell id="446" value="&lt;font color=&quot;#000000&quot;&gt;formualire de contact&lt;/font&gt;" style="rounded=1;whiteSpace=wrap;html=1;fontSize=21;gradientColor=none;fillColor=#FFFFFF;" vertex="1" parent="1">
                    <mxGeometry x="4412.16" y="1754" width="470" height="36" as="geometry"/>
                </mxCell>
                <mxCell id="447" value="contact par chat" style="rounded=1;whiteSpace=wrap;html=1;fontSize=28;fillColor=#0050ef;fontColor=#ffffff;strokeColor=#001DBC;shadow=1;" vertex="1" parent="1">
                    <mxGeometry x="4706.16" y="1981" width="241" height="200" as="geometry"/>
                </mxCell>
                <mxCell id="448" value="contact par mail" style="rounded=1;whiteSpace=wrap;html=1;fontSize=28;fillColor=#0050ef;fontColor=#ffffff;strokeColor=#001DBC;shadow=1;" vertex="1" parent="1">
                    <mxGeometry x="4511" y="2206" width="241" height="200" as="geometry"/>
                </mxCell>
                <mxCell id="449" value="&amp;nbsp;contact Téléphone" style="rounded=1;whiteSpace=wrap;html=1;fontSize=28;fillColor=#0050ef;fontColor=#ffffff;strokeColor=#001DBC;shadow=1;" vertex="1" parent="1">
                    <mxGeometry x="4346.96" y="1981" width="241" height="200" as="geometry"/>
                </mxCell>
                <mxCell id="450" value="" style="shape=mxgraph.signs.tech.telephone_3;html=1;pointerEvents=1;fillColor=#000000;strokeColor=none;verticalLabelPosition=bottom;verticalAlign=top;align=center;sketch=0;" vertex="1" parent="1">
                    <mxGeometry x="4445.46" y="2103" width="44" height="60.05" as="geometry"/>
                </mxCell>
                <mxCell id="451" value="" style="shape=mxgraph.signs.tech.mail;html=1;pointerEvents=1;fillColor=#000000;strokeColor=none;verticalLabelPosition=bottom;verticalAlign=top;align=center;sketch=0;" vertex="1" parent="1">
                    <mxGeometry x="4795.2" y="2105.52" width="72.6" height="55" as="geometry"/>
                </mxCell>
                <mxCell id="452" value="" style="shape=mxgraph.signs.healthcare.tdd;html=1;pointerEvents=1;fillColor=#000000;strokeColor=none;verticalLabelPosition=bottom;verticalAlign=top;align=center;sketch=0;" vertex="1" parent="1">
                    <mxGeometry x="4604.460000000001" y="2332.91" width="54.07" height="63.09" as="geometry"/>
                </mxCell>
                <mxCell id="474" value="" style="rounded=1;whiteSpace=wrap;html=1;" vertex="1" parent="1">
                    <mxGeometry x="5400" y="1441" width="660" height="1390" as="geometry"/>
                </mxCell>
                <mxCell id="486" value="footer Bottom" style="rounded=0;whiteSpace=wrap;html=1;fontSize=28;fillColor=#0050ef;fontColor=#ffffff;strokeColor=#001DBC;" vertex="1" parent="1">
                    <mxGeometry x="5411" y="2668" width="640" height="59" as="geometry"/>
                </mxCell>
                <mxCell id="487" value="footer 1" style="rounded=0;whiteSpace=wrap;html=1;fontSize=28;fillColor=#6a00ff;fontColor=#ffffff;strokeColor=#3700CC;" vertex="1" parent="1">
                    <mxGeometry x="5411" y="2568" width="640" height="99" as="geometry"/>
                </mxCell>
                <mxCell id="488" value="" style="dashed=0;outlineConnect=0;html=1;align=center;labelPosition=center;verticalLabelPosition=bottom;verticalAlign=top;shape=mxgraph.webicons.facebook;fillColor=#6294E4;gradientColor=#1A2665;rounded=0;shadow=1;glass=1;sketch=0;fontSize=28;" vertex="1" parent="1">
                    <mxGeometry x="5415.38" y="2690.7999999999997" width="20.28" height="17.2" as="geometry"/>
                </mxCell>
                <mxCell id="489" value="" style="dashed=0;outlineConnect=0;html=1;align=center;labelPosition=center;verticalLabelPosition=bottom;verticalAlign=top;shape=mxgraph.webicons.vimeo;fillColor=#A4EDF9;gradientColor=#2B8ED9;rounded=0;shadow=1;glass=1;sketch=0;fontSize=28;" vertex="1" parent="1">
                    <mxGeometry x="5440" y="2691" width="17.2" height="17.2" as="geometry"/>
                </mxCell>
                <mxCell id="490" value="" style="dashed=0;outlineConnect=0;html=1;align=center;labelPosition=center;verticalLabelPosition=bottom;verticalAlign=top;shape=mxgraph.webicons.github;gradientColor=#DFDEDE;rounded=0;shadow=1;glass=1;sketch=0;fontSize=28;" vertex="1" parent="1">
                    <mxGeometry x="5463.33" y="2690.7999999999997" width="17.2" height="17.2" as="geometry"/>
                </mxCell>
                <mxCell id="491" value="" style="shape=actor;whiteSpace=wrap;html=1;rounded=0;shadow=1;glass=1;sketch=0;fontSize=28;fillColor=#6a00ff;fontColor=#ffffff;strokeColor=#3700CC;gradientColor=default;" vertex="1" parent="1">
                    <mxGeometry x="5975" y="1637" width="40" height="60" as="geometry"/>
                </mxCell>
                <mxCell id="494" value="" style="shape=singleArrow;direction=west;whiteSpace=wrap;html=1;fontSize=28;flipV=0;flipH=1;rotation=90;fillColor=#FFFFFF;" vertex="1" parent="1">
                    <mxGeometry x="5663.76" y="2431" width="124.23" height="41" as="geometry"/>
                </mxCell>
                <mxCell id="201" value="inscription / Login" style="rounded=1;whiteSpace=wrap;html=1;fontSize=28;fillColor=#0050ef;fontColor=#ffffff;strokeColor=#001DBC;shadow=1;" parent="1" vertex="1">
                    <mxGeometry x="5440" y="1720" width="600" height="530" as="geometry"/>
                </mxCell>
                <mxCell id="202" value="" style="rounded=1;whiteSpace=wrap;html=1;fontSize=21;gradientColor=none;fillColor=#FFFFFF;" parent="1" vertex="1">
                    <mxGeometry x="5505" y="1794" width="470" height="60" as="geometry"/>
                </mxCell>
                <mxCell id="203" value="" style="rounded=1;whiteSpace=wrap;html=1;fontSize=21;gradientColor=none;fillColor=#FFFFFF;" parent="1" vertex="1">
                    <mxGeometry x="5505" y="1880" width="470" height="60" as="geometry"/>
                </mxCell>
                <mxCell id="204" value="" style="rounded=1;whiteSpace=wrap;html=1;fontSize=21;gradientColor=none;fillColor=#FFFFFF;" parent="1" vertex="1">
                    <mxGeometry x="5505" y="2010" width="470" height="60" as="geometry"/>
                </mxCell>
                <mxCell id="205" value="" style="rounded=1;whiteSpace=wrap;html=1;fontSize=21;gradientColor=none;fillColor=#FFFFFF;" parent="1" vertex="1">
                    <mxGeometry x="5505" y="2100" width="470" height="60" as="geometry"/>
                </mxCell>
                <mxCell id="501" value="" style="html=1;verticalLabelPosition=bottom;align=center;labelBackgroundColor=#ffffff;verticalAlign=top;strokeWidth=2;strokeColor=#0080F0;shadow=0;dashed=0;shape=mxgraph.ios7.icons.options;pointerEvents=1;fontSize=54;fontColor=#000000;fillColor=#FFFFFF;" vertex="1" parent="1">
                    <mxGeometry x="665" y="1545.5" width="59" height="43" as="geometry"/>
                </mxCell>
                <mxCell id="508" value="" style="rounded=1;whiteSpace=wrap;html=1;fillColor=#0050ef;fontColor=#ffffff;strokeColor=#001DBC;glass=1;shadow=1;" vertex="1" parent="1">
                    <mxGeometry x="1183.5" y="1567" width="115.38" height="40" as="geometry"/>
                </mxCell>
                <mxCell id="509" value="" style="sketch=0;html=1;aspect=fixed;shadow=0;align=center;verticalAlign=top;shape=mxgraph.gcp2.search;fontSize=21;fillColor=#FFFFFF;" vertex="1" parent="1">
                    <mxGeometry x="1226.3400000000001" y="1572" width="29.7" height="30" as="geometry"/>
                </mxCell>
                <mxCell id="510" value="LOGO" style="shape=sumEllipse;perimeter=ellipsePerimeter;whiteSpace=wrap;html=1;backgroundOutline=1;fillColor=#0050ef;fontColor=#ffffff;strokeColor=#001DBC;" vertex="1" parent="1">
                    <mxGeometry x="1400.51" y="1519" width="117" height="117" as="geometry"/>
                </mxCell>
                <mxCell id="511" value="" style="html=1;verticalLabelPosition=bottom;align=center;labelBackgroundColor=#ffffff;verticalAlign=top;strokeWidth=2;strokeColor=#0080F0;shadow=0;dashed=0;shape=mxgraph.ios7.icons.options;pointerEvents=1;fontSize=54;fontColor=#000000;fillColor=#FFFFFF;" vertex="1" parent="1">
                    <mxGeometry x="1659.51" y="1565.5" width="59" height="43" as="geometry"/>
                </mxCell>
                <mxCell id="512" value="" style="rounded=1;whiteSpace=wrap;html=1;fillColor=#0050ef;fontColor=#ffffff;strokeColor=#001DBC;glass=1;shadow=1;" vertex="1" parent="1">
                    <mxGeometry x="2199.8799999999997" y="1567" width="115.38" height="40" as="geometry"/>
                </mxCell>
                <mxCell id="513" value="" style="sketch=0;html=1;aspect=fixed;shadow=0;align=center;verticalAlign=top;shape=mxgraph.gcp2.search;fontSize=21;fillColor=#FFFFFF;" vertex="1" parent="1">
                    <mxGeometry x="2242.72" y="1572" width="29.7" height="30" as="geometry"/>
                </mxCell>
                <mxCell id="514" value="LOGO" style="shape=sumEllipse;perimeter=ellipsePerimeter;whiteSpace=wrap;html=1;backgroundOutline=1;fillColor=#0050ef;fontColor=#ffffff;strokeColor=#001DBC;" vertex="1" parent="1">
                    <mxGeometry x="2416.89" y="1519" width="117" height="117" as="geometry"/>
                </mxCell>
                <mxCell id="515" value="" style="html=1;verticalLabelPosition=bottom;align=center;labelBackgroundColor=#ffffff;verticalAlign=top;strokeWidth=2;strokeColor=#0080F0;shadow=0;dashed=0;shape=mxgraph.ios7.icons.options;pointerEvents=1;fontSize=54;fontColor=#000000;fillColor=#FFFFFF;" vertex="1" parent="1">
                    <mxGeometry x="2675.89" y="1565.5" width="59" height="43" as="geometry"/>
                </mxCell>
                <mxCell id="516" value="" style="rounded=1;whiteSpace=wrap;html=1;fillColor=#0050ef;fontColor=#ffffff;strokeColor=#001DBC;glass=1;shadow=1;" vertex="1" parent="1">
                    <mxGeometry x="3207.4999999999995" y="1567" width="115.38" height="40" as="geometry"/>
                </mxCell>
                <mxCell id="517" value="" style="sketch=0;html=1;aspect=fixed;shadow=0;align=center;verticalAlign=top;shape=mxgraph.gcp2.search;fontSize=21;fillColor=#FFFFFF;" vertex="1" parent="1">
                    <mxGeometry x="3250.3399999999997" y="1572" width="29.7" height="30" as="geometry"/>
                </mxCell>
                <mxCell id="518" value="LOGO" style="shape=sumEllipse;perimeter=ellipsePerimeter;whiteSpace=wrap;html=1;backgroundOutline=1;fillColor=#0050ef;fontColor=#ffffff;strokeColor=#001DBC;" vertex="1" parent="1">
                    <mxGeometry x="3424.5099999999998" y="1519" width="117" height="117" as="geometry"/>
                </mxCell>
                <mxCell id="519" value="" style="html=1;verticalLabelPosition=bottom;align=center;labelBackgroundColor=#ffffff;verticalAlign=top;strokeWidth=2;strokeColor=#0080F0;shadow=0;dashed=0;shape=mxgraph.ios7.icons.options;pointerEvents=1;fontSize=54;fontColor=#000000;fillColor=#FFFFFF;" vertex="1" parent="1">
                    <mxGeometry x="3683.5099999999998" y="1565.5" width="59" height="43" as="geometry"/>
                </mxCell>
                <mxCell id="520" value="" style="rounded=1;whiteSpace=wrap;html=1;fillColor=#0050ef;fontColor=#ffffff;strokeColor=#001DBC;glass=1;shadow=1;" vertex="1" parent="1">
                    <mxGeometry x="4386.49" y="1568" width="115.38" height="40" as="geometry"/>
                </mxCell>
                <mxCell id="521" value="" style="sketch=0;html=1;aspect=fixed;shadow=0;align=center;verticalAlign=top;shape=mxgraph.gcp2.search;fontSize=21;fillColor=#FFFFFF;" vertex="1" parent="1">
                    <mxGeometry x="4429.33" y="1573" width="29.7" height="30" as="geometry"/>
                </mxCell>
                <mxCell id="522" value="LOGO" style="shape=sumEllipse;perimeter=ellipsePerimeter;whiteSpace=wrap;html=1;backgroundOutline=1;fillColor=#0050ef;fontColor=#ffffff;strokeColor=#001DBC;" vertex="1" parent="1">
                    <mxGeometry x="4603.5" y="1520" width="117" height="117" as="geometry"/>
                </mxCell>
                <mxCell id="523" value="" style="html=1;verticalLabelPosition=bottom;align=center;labelBackgroundColor=#ffffff;verticalAlign=top;strokeWidth=2;strokeColor=#0080F0;shadow=0;dashed=0;shape=mxgraph.ios7.icons.options;pointerEvents=1;fontSize=54;fontColor=#000000;fillColor=#FFFFFF;" vertex="1" parent="1">
                    <mxGeometry x="4862.5" y="1566.5" width="59" height="43" as="geometry"/>
                </mxCell>
                <mxCell id="524" value="" style="rounded=1;whiteSpace=wrap;html=1;fillColor=#0050ef;fontColor=#ffffff;strokeColor=#001DBC;glass=1;shadow=1;" vertex="1" parent="1">
                    <mxGeometry x="5470" y="1568" width="115.38" height="40" as="geometry"/>
                </mxCell>
                <mxCell id="525" value="" style="sketch=0;html=1;aspect=fixed;shadow=0;align=center;verticalAlign=top;shape=mxgraph.gcp2.search;fontSize=21;fillColor=#FFFFFF;" vertex="1" parent="1">
                    <mxGeometry x="5512.84" y="1573" width="29.7" height="30" as="geometry"/>
                </mxCell>
                <mxCell id="526" value="LOGO" style="shape=sumEllipse;perimeter=ellipsePerimeter;whiteSpace=wrap;html=1;backgroundOutline=1;fillColor=#0050ef;fontColor=#ffffff;strokeColor=#001DBC;" vertex="1" parent="1">
                    <mxGeometry x="5687.01" y="1520" width="117" height="117" as="geometry"/>
                </mxCell>
                <mxCell id="527" value="" style="html=1;verticalLabelPosition=bottom;align=center;labelBackgroundColor=#ffffff;verticalAlign=top;strokeWidth=2;strokeColor=#0080F0;shadow=0;dashed=0;shape=mxgraph.ios7.icons.options;pointerEvents=1;fontSize=54;fontColor=#000000;fillColor=#FFFFFF;" vertex="1" parent="1">
                    <mxGeometry x="5946.01" y="1566.5" width="59" height="43" as="geometry"/>
                </mxCell>
                <mxCell id="528" value="Login/inscription" style="rounded=1;whiteSpace=wrap;html=1;fontSize=28;fillColor=#0050ef;fontColor=#ffffff;strokeColor=#001DBC;shadow=1;" vertex="1" parent="1">
                    <mxGeometry x="5415.38" y="150" width="600" height="530" as="geometry"/>
                </mxCell>
                <mxCell id="529" value="" style="rounded=1;whiteSpace=wrap;html=1;fontSize=21;gradientColor=none;fillColor=#FFFFFF;" vertex="1" parent="1">
                    <mxGeometry x="5480.38" y="317.51" width="470" height="60" as="geometry"/>
                </mxCell>
                <mxCell id="530" value="" style="rounded=1;whiteSpace=wrap;html=1;fontSize=21;gradientColor=none;fillColor=#FFFFFF;" vertex="1" parent="1">
                    <mxGeometry x="5480.38" y="231.51" width="470" height="60" as="geometry"/>
                </mxCell>
                <mxCell id="531" value="" style="rounded=1;whiteSpace=wrap;html=1;fontSize=21;gradientColor=none;fillColor=#FFFFFF;" vertex="1" parent="1">
                    <mxGeometry x="5480.38" y="447.51" width="470" height="60" as="geometry"/>
                </mxCell>
                <mxCell id="532" value="" style="rounded=1;whiteSpace=wrap;html=1;fontSize=21;gradientColor=none;fillColor=#FFFFFF;" vertex="1" parent="1">
                    <mxGeometry x="5480.38" y="537.51" width="470" height="60" as="geometry"/>
                </mxCell>
            </root>
        </mxGraphModel>
    </diagram>
</mxfile>